<!-- Generator: Adobe Illustrator 20.1.0, SVG Export Plug-In  -->
<svg version="1.1"
	 xmlns="http://www.w3.org/2000/svg" xmlns:xlink="http://www.w3.org/1999/xlink" xmlns:a="http://ns.adobe.com/AdobeSVGViewerExtensions/3.0/"
	 x="0px" y="0px" width="38.9px" height="166.4px" viewBox="0 0 38.9 166.4" style="enable-background:new 0 0 38.9 166.4;"
	 xml:space="preserve">
<style type="text/css">
	.st0{opacity:0.5;fill:none;stroke:#FFFFFF;stroke-miterlimit:10;}
	.st1{opacity:0.5;}
	.st2{fill:#FFFFFF;}
</style>
<defs>
</defs>
<circle class="st0" cx="19.4" cy="19.4" r="18.9"/>
<circle class="st0" cx="19.4" cy="75.9" r="3.7"/>
<g>
	<g class="st1">
		<path class="st2" d="M14.4,49.4c0.9-0.6,2-1.1,3.1-1.3c0.8-0.2,1.6-0.2,2.4-0.2c0.4,0,0.8,0.1,1.2,0.2c0.4,0.1,0.8,0.2,1.2,0.3
			c0.8,0.3,1.5,0.6,2.1,1c0.7,0.5,1.3,1,1.8,1.6c0.3,0.3,0.5,0.6,0.7,0.9c0.2,0.3,0.4,0.6,0.5,0.9c0.1,0.3,0.3,0.6,0.4,0.9
			c0.1,0.3,0.2,0.6,0.2,0.8c0.1,0.3,0.1,0.5,0.1,0.8c0,0.2,0,0.4,0.1,0.6c0,0,0,0,0,0c0,0.4,0,0.7,0,0.9c0,0.2,0,0.3,0,0.3
			s0-0.1,0-0.3c0-0.2-0.1-0.5-0.2-0.9c0-0.2-0.1-0.4-0.1-0.6c-0.1-0.2-0.1-0.4-0.2-0.7c-0.1-0.2-0.2-0.5-0.3-0.7
			c-0.1-0.3-0.3-0.5-0.4-0.8c-0.1-0.1-0.1-0.2-0.2-0.3c-0.1-0.2-0.2-0.3-0.3-0.5c-0.2-0.3-0.4-0.5-0.7-0.8c-0.5-0.5-1.1-1-1.7-1.4
			c-0.1-0.1-0.2-0.1-0.3-0.2c-0.6-0.3-1.2-0.6-1.8-0.8c-0.1,0-0.2-0.1-0.3-0.1c-0.7-0.2-1.4-0.3-2.2-0.3c-0.8,0-1.6,0.1-2.4,0.3
			c-0.7,0.2-1.4,0.5-2,0.9c-0.1,0-0.1,0.1-0.2,0.1c-0.6,0.4-1.2,0.9-1.7,1.4c-0.3,0.2-0.5,0.5-0.7,0.8c-0.1,0.2-0.3,0.4-0.4,0.5
			C12,53,12,53.1,11.9,53.2c-0.1,0.3-0.3,0.5-0.4,0.8c-0.1,0.3-0.2,0.5-0.3,0.8C11.1,55,11,55.2,11,55.4c0,0.1-0.1,0.3-0.1,0.4
			c0,0.1,0,0.1,0,0.2c-0.1,0.4-0.1,0.7-0.1,0.8c0,0.2,0,0.3,0,0.3s0-0.1,0-0.3c0-0.2,0-0.5,0-0.9c0-0.2,0-0.4,0.1-0.6
			c0-0.2,0.1-0.5,0.1-0.7c0.1-0.3,0.1-0.5,0.2-0.8c0.1-0.3,0.2-0.6,0.4-0.9c0.1-0.3,0.3-0.6,0.5-0.9c0.2-0.3,0.4-0.6,0.7-0.9
			C13.1,50.5,13.7,49.9,14.4,49.4z"/>
	</g>
	<g class="st1">
		<path class="st2" d="M15.8,60.9c0.8-0.5,1.7-0.9,2.7-1c0.5-0.1,1.1-0.1,1.6-0.1c0.3,0,0.5,0.1,0.8,0.1c0.3,0.1,0.5,0.1,0.8,0.2
			c0.5,0.2,1,0.4,1.4,0.7c0.5,0.4,0.9,0.8,1.3,1.2c0.2,0.2,0.3,0.4,0.5,0.7c0.1,0.2,0.2,0.4,0.3,0.6c0.1,0.2,0.2,0.4,0.2,0.6
			c0.1,0.2,0.1,0.4,0.2,0.6c0,0.2,0.1,0.4,0.1,0.5c0,0.2,0,0.3,0,0.4c0,0,0,0,0,0c0,0.3,0,0.5,0,0.6c0,0.1,0,0.2,0,0.2s0-0.1,0-0.2
			c0-0.1-0.1-0.4-0.1-0.6c0-0.1-0.1-0.2-0.1-0.4c0-0.1-0.1-0.3-0.2-0.4c-0.1-0.2-0.1-0.3-0.2-0.5c-0.1-0.2-0.2-0.4-0.3-0.5
			c0-0.1-0.1-0.1-0.1-0.2c-0.1-0.1-0.1-0.2-0.2-0.3c-0.1-0.2-0.3-0.4-0.5-0.5c-0.3-0.4-0.7-0.7-1.2-1c-0.1-0.1-0.2-0.1-0.2-0.1
			c-0.4-0.2-0.8-0.4-1.3-0.5C21.1,61,21,61,21,61c-0.5-0.1-1-0.2-1.6-0.2c-0.6,0-1.1,0.1-1.7,0.2c-0.5,0.1-1,0.3-1.4,0.6
			c0,0-0.1,0-0.1,0.1c-0.5,0.3-0.9,0.6-1.2,1c-0.2,0.2-0.3,0.4-0.5,0.5c-0.1,0.1-0.2,0.2-0.3,0.4c0,0.1-0.1,0.1-0.1,0.2
			c-0.1,0.2-0.2,0.4-0.3,0.5c-0.1,0.2-0.2,0.4-0.2,0.5c-0.1,0.2-0.1,0.3-0.2,0.5c0,0.1,0,0.2-0.1,0.2c0,0,0,0.1,0,0.1
			c-0.1,0.3-0.1,0.5-0.1,0.6c0,0.1,0,0.2,0,0.2s0-0.1,0-0.2c0-0.1,0-0.4,0-0.6c0-0.1,0-0.3,0-0.4c0-0.2,0-0.3,0.1-0.5
			c0-0.2,0.1-0.4,0.2-0.6c0.1-0.2,0.2-0.4,0.3-0.7c0.1-0.2,0.2-0.4,0.3-0.6c0.1-0.2,0.3-0.4,0.5-0.6C14.8,61.7,15.3,61.3,15.8,60.9z
			"/>
	</g>
</g>
<g class="st1">
	<g>
		<path class="st2" d="M21.3,162.3c-0.3,0-0.6,0.1-0.8,0.4s-0.4,0.7-0.5,1.3s-0.3,1-0.4,1.3s-0.3,0.5-0.6,0.7s-0.5,0.2-0.8,0.2
			c-0.5,0-0.9-0.2-1.2-0.6s-0.5-1-0.5-1.6c0-0.7,0.2-1.3,0.5-1.7s0.8-0.6,1.4-0.6v0.7c-0.4,0-0.7,0.2-0.9,0.5s-0.4,0.7-0.4,1.2
			c0,0.5,0.1,0.8,0.3,1.1s0.5,0.4,0.8,0.4c0.3,0,0.6-0.1,0.7-0.3s0.3-0.7,0.5-1.3s0.3-1.1,0.5-1.4s0.4-0.5,0.6-0.7s0.5-0.2,0.8-0.2
			c0.5,0,1,0.2,1.3,0.6s0.5,1,0.5,1.7c0,0.7-0.2,1.3-0.5,1.8s-0.8,0.7-1.4,0.7v-0.7c0.4,0,0.7-0.2,1-0.5s0.3-0.7,0.3-1.3
			c0-0.5-0.1-0.9-0.3-1.2S21.7,162.3,21.3,162.3z"/>
		<path class="st2" d="M14.8,160c-0.1,0-0.2,0-0.3-0.1s-0.1-0.2-0.1-0.4s0-0.3,0.1-0.4s0.2-0.1,0.3-0.1c0.1,0,0.2,0,0.3,0.1
			s0.1,0.2,0.1,0.4s0,0.3-0.1,0.4S14.9,160,14.8,160z M22.9,159.2v0.7h-6.3v-0.7H22.9z"/>
		<path class="st2" d="M22.3,156.8v-4.1h0.6v5h-0.5l-5.2-3.8v3.7h-0.6V153h0.5L22.3,156.8z"/>
		<path class="st2" d="M23.1,149c0,0.5-0.1,1-0.4,1.5s-0.6,0.8-1.1,1s-1,0.4-1.6,0.4h-0.3c-0.6,0-1.2-0.1-1.6-0.4s-0.9-0.6-1.2-1
			s-0.4-0.9-0.4-1.4c0-0.8,0.3-1.4,0.8-1.8s1.2-0.7,2.2-0.7h0.4v4.5H20c0.7,0,1.3-0.2,1.8-0.6s0.7-0.9,0.7-1.6c0-0.4-0.1-0.7-0.2-1
			s-0.4-0.5-0.7-0.8l0.3-0.4C22.7,147.3,23.1,148,23.1,149z M17.1,149.1c0,0.5,0.2,1,0.6,1.3s0.9,0.6,1.6,0.7v-3.8h-0.1
			c-0.6,0-1.1,0.2-1.5,0.5S17.1,148.6,17.1,149.1z"/>
		<path class="st2" d="M18.1,137.5v4.9h-0.6v-4.9H18.1z M20.5,137.5v4.9h-0.6v-4.9H20.5z"/>
		<path class="st2" d="M14.8,132.8c-0.1,0-0.2,0-0.3-0.1s-0.1-0.2-0.1-0.4s0-0.3,0.1-0.4s0.2-0.1,0.3-0.1c0.1,0,0.2,0,0.3,0.1
			s0.1,0.2,0.1,0.4s0,0.3-0.1,0.4S14.9,132.8,14.8,132.8z M22.9,132v0.7h-6.3V132H22.9z"/>
		<path class="st2" d="M16.6,129.4l1.1,0c-0.4-0.2-0.7-0.5-0.9-0.9s-0.3-0.7-0.3-1.2c0-0.7,0.2-1.2,0.6-1.5s1-0.5,1.7-0.5h4.2v0.7
			h-4.2c-0.6,0-1,0.1-1.3,0.4s-0.4,0.6-0.4,1.1c0,0.4,0.1,0.8,0.4,1.2s0.6,0.6,1.1,0.7h4.3v0.7h-6.3V129.4z"/>
		<path class="st2" d="M15,122.4h1.6v-1.3h0.6v1.3h4.2c0.4,0,0.6-0.1,0.8-0.2s0.3-0.3,0.3-0.6c0-0.1,0-0.3-0.1-0.6l0.6,0
			c0.1,0.2,0.1,0.4,0.1,0.8c0,0.5-0.1,0.8-0.4,1s-0.7,0.3-1.2,0.3h-4.2v1.2h-0.6v-1.2H15V122.4z"/>
		<path class="st2" d="M23.1,117.2c0,0.5-0.1,1-0.4,1.5s-0.6,0.8-1.1,1s-1,0.4-1.6,0.4h-0.3c-0.6,0-1.2-0.1-1.6-0.4s-0.9-0.6-1.2-1
			s-0.4-0.9-0.4-1.4c0-0.8,0.3-1.4,0.8-1.8s1.2-0.7,2.2-0.7h0.4v4.5H20c0.7,0,1.3-0.2,1.8-0.6s0.7-0.9,0.7-1.6c0-0.4-0.1-0.7-0.2-1
			s-0.4-0.5-0.7-0.8l0.3-0.4C22.7,115.5,23.1,116.2,23.1,117.2z M17.1,117.3c0,0.5,0.2,1,0.6,1.3s0.9,0.6,1.6,0.7v-3.8h-0.1
			c-0.6,0-1.1,0.2-1.5,0.5S17.1,116.8,17.1,117.3z"/>
		<path class="st2" d="M17.2,110.5c0,0.1,0,0.3,0,0.5c0,0.4,0.1,0.8,0.4,1.1s0.6,0.5,1.1,0.6h4.4v0.7h-6.3v-0.7l1,0
			c-0.8-0.4-1.1-1-1.1-1.8c0-0.2,0-0.3,0.1-0.5L17.2,110.5z"/>
		<path class="st2" d="M23.1,106.9c0,0.5-0.1,1-0.4,1.5s-0.6,0.8-1.1,1s-1,0.4-1.6,0.4h-0.3c-0.6,0-1.2-0.1-1.6-0.4s-0.9-0.6-1.2-1
			s-0.4-0.9-0.4-1.4c0-0.8,0.3-1.4,0.8-1.8s1.2-0.7,2.2-0.7h0.4v4.5H20c0.7,0,1.3-0.2,1.8-0.6s0.7-0.9,0.7-1.6c0-0.4-0.1-0.7-0.2-1
			s-0.4-0.5-0.7-0.8l0.3-0.4C22.7,105.2,23.1,106,23.1,106.9z M17.1,107.1c0,0.5,0.2,1,0.6,1.3s0.9,0.6,1.6,0.7v-3.8h-0.1
			c-0.6,0-1.1,0.2-1.5,0.5S17.1,106.5,17.1,107.1z"/>
		<path class="st2" d="M21.3,99.4c-0.3,0-0.6,0.1-0.8,0.4s-0.4,0.7-0.5,1.3s-0.3,1-0.4,1.3s-0.3,0.5-0.6,0.7s-0.5,0.2-0.8,0.2
			c-0.5,0-0.9-0.2-1.2-0.6s-0.5-1-0.5-1.6c0-0.7,0.2-1.3,0.5-1.7s0.8-0.6,1.4-0.6v0.7c-0.4,0-0.7,0.2-0.9,0.5s-0.4,0.7-0.4,1.2
			c0,0.5,0.1,0.8,0.3,1.1s0.5,0.4,0.8,0.4c0.3,0,0.6-0.1,0.7-0.3s0.3-0.7,0.5-1.3s0.3-1.1,0.5-1.4s0.4-0.5,0.6-0.7s0.5-0.2,0.8-0.2
			c0.5,0,1,0.2,1.3,0.6s0.5,1,0.5,1.7c0,0.7-0.2,1.3-0.5,1.8s-0.8,0.7-1.4,0.7v-0.7c0.4,0,0.7-0.2,1-0.5s0.3-0.7,0.3-1.3
			c0-0.5-0.1-0.9-0.3-1.2S21.7,99.4,21.3,99.4z"/>
		<path class="st2" d="M15,96h1.6v-1.3h0.6V96h4.2c0.4,0,0.6-0.1,0.8-0.2s0.3-0.3,0.3-0.6c0-0.1,0-0.3-0.1-0.6l0.6,0
			c0.1,0.2,0.1,0.4,0.1,0.8c0,0.5-0.1,0.8-0.4,1s-0.7,0.3-1.2,0.3h-4.2v1.2h-0.6v-1.2H15V96z"/>
	</g>
</g>
</svg>
