<?xml version="1.0" encoding="utf-8"?>
<!-- Generator: Adobe Illustrator 20.1.0, SVG Export Plug-In . SVG Version: 6.00 Build 0)  -->
<svg version="1.1" id="Layer_1" xmlns="http://www.w3.org/2000/svg" xmlns:xlink="http://www.w3.org/1999/xlink" x="0px" y="0px"
	 viewBox="0 0 667 375" style="enable-background:new 0 0 667 375;" xml:space="preserve">
<style type="text/css">
	.st0{fill:#112340;}
	.st1{fill:url(#SVGID_1_);}
	.st2{fill:url(#SVGID_2_);}
	.st3{fill:url(#SVGID_3_);}
	.st4{fill:url(#SVGID_4_);}
	.st5{fill:url(#SVGID_5_);}
	.st6{fill:url(#SVGID_6_);}
	.st7{fill:url(#SVGID_7_);}
	.st8{fill:url(#SVGID_8_);}
	.st9{fill:url(#SVGID_9_);}
	.st10{fill:url(#SVGID_10_);}
	.st11{fill:#FFEB3B;}
	.st12{fill:#FFFFFF;}
</style>
<g id="Layer_1_1_">
	<title>160816-mobile_helpers</title>
	<rect class="st0" width="667" height="375"/>
	<g id="Layer_2">
		
			<linearGradient id="SVGID_1_" gradientUnits="userSpaceOnUse" x1="229.7841" y1="-196.713" x2="409.2983" y2="-193.7653" gradientTransform="matrix(1 0 0 1 0 286)">
			<stop  offset="0" style="stop-color:#488DFB"/>
			<stop  offset="1" style="stop-color:#FF5252"/>
		</linearGradient>
		<path class="st1" d="M238,90.8l3-9.7h3.9l2.9,9.7l3.3-9.7h4L249.3,98h-2.8l-3.7-11.8L239.3,98h-2.8l-5.9-17h4L238,90.8z"/>
		
			<linearGradient id="SVGID_2_" gradientUnits="userSpaceOnUse" x1="229.7937" y1="-197.2126" x2="409.3079" y2="-194.265" gradientTransform="matrix(1 0 0 1 0 286)">
			<stop  offset="0" style="stop-color:#488DFB"/>
			<stop  offset="1" style="stop-color:#FF5252"/>
		</linearGradient>
		<path class="st2" d="M273.3,95.6c-1.6,1.7-3.9,2.6-6.2,2.5c-2.3,0.1-4.6-0.9-6.2-2.5c-1.7-1.6-2.6-3.9-2.5-6.2
			c-0.1-2.3,0.9-4.6,2.5-6.2c1.6-1.7,3.9-2.6,6.2-2.5c2.3-0.1,4.6,0.9,6.2,2.5c1.7,1.6,2.6,3.9,2.5,6.2
			C275.9,91.7,275,94,273.3,95.6z M272.1,89.4c0-1.4-0.5-2.8-1.4-3.9c-1.7-1.9-4.7-2.1-6.6-0.4c-0.2,0.1-0.3,0.3-0.4,0.4
			c-1,1.1-1.5,2.4-1.4,3.9c0,1.4,0.5,2.8,1.4,3.9c1.7,1.9,4.7,2.1,6.7,0.4c0.1-0.1,0.3-0.3,0.4-0.4
			C271.6,92.2,272.1,90.8,272.1,89.4z"/>
		
			<linearGradient id="SVGID_3_" gradientUnits="userSpaceOnUse" x1="229.7968" y1="-197.4007" x2="409.3109" y2="-194.4531" gradientTransform="matrix(1 0 0 1 0 286)">
			<stop  offset="0" style="stop-color:#488DFB"/>
			<stop  offset="1" style="stop-color:#FF5252"/>
		</linearGradient>
		<path class="st3" d="M295,86.6c0,2.7-1.1,4.5-3.2,5.3L296,98h-4.6l-3.7-5.4h-2.6V98h-3.7V81h6.3c2.6,0,4.5,0.4,5.6,1.3
			C294.4,83.2,295,84.7,295,86.6z M290.5,88.7c0.5-0.4,0.7-1.1,0.7-2s-0.2-1.5-0.7-1.9c-0.5-0.3-1.3-0.5-2.5-0.5h-2.8v5h2.7
			C289.2,89.3,290,89.1,290.5,88.7z"/>
		
			<linearGradient id="SVGID_4_" gradientUnits="userSpaceOnUse" x1="229.7998" y1="-197.7028" x2="409.3139" y2="-194.7551" gradientTransform="matrix(1 0 0 1 0 286)">
			<stop  offset="0" style="stop-color:#488DFB"/>
			<stop  offset="1" style="stop-color:#FF5252"/>
		</linearGradient>
		<path class="st4" d="M301.2,98V81h3.7v13.6h7.1V98H301.2z"/>
		
			<linearGradient id="SVGID_5_" gradientUnits="userSpaceOnUse" x1="229.8057" y1="-197.9861" x2="409.3199" y2="-195.0385" gradientTransform="matrix(1 0 0 1 0 286)">
			<stop  offset="0" style="stop-color:#488DFB"/>
			<stop  offset="1" style="stop-color:#FF5252"/>
		</linearGradient>
		<path class="st5" d="M330,83.2c1.6,1.5,2.4,3.5,2.4,6.2s-0.8,4.7-2.3,6.3c-1.6,1.5-3.9,2.3-7.1,2.3h-5.7V81h5.9
			C326.1,81,328.4,81.8,330,83.2z M327.2,93.3c0.9-0.9,1.4-2.1,1.4-3.8c0-1.7-0.5-2.9-1.4-3.8c-0.9-0.9-2.3-1.4-4.2-1.4h-2.1v10.3
			h2.4C325,94.6,326.3,94.2,327.2,93.3z"/>
		
			<linearGradient id="SVGID_6_" gradientUnits="userSpaceOnUse" x1="229.8145" y1="-198.4705" x2="409.3287" y2="-195.5229" gradientTransform="matrix(1 0 0 1 0 286)">
			<stop  offset="0" style="stop-color:#488DFB"/>
			<stop  offset="1" style="stop-color:#FF5252"/>
		</linearGradient>
		<path class="st6" d="M358.2,82.5c1.2,1,1.8,2.6,1.8,4.7s-0.6,3.6-1.8,4.6c-1.2,1-3,1.5-5.5,1.5h-2.2V98h-3.7V81h5.9
			C355.1,81,357,81.5,358.2,82.5z M355.5,89.2c0.4-0.5,0.7-1.3,0.7-2.2c0-1-0.3-1.7-0.9-2.1c-0.6-0.4-1.5-0.6-2.7-0.6h-2.1V90h2.5
			C354.2,90,355,89.7,355.5,89.2z"/>
		
			<linearGradient id="SVGID_7_" gradientUnits="userSpaceOnUse" x1="229.8202" y1="-198.9519" x2="409.3344" y2="-196.0042" gradientTransform="matrix(1 0 0 1 0 286)">
			<stop  offset="0" style="stop-color:#488DFB"/>
			<stop  offset="1" style="stop-color:#FF5252"/>
		</linearGradient>
		<path class="st7" d="M379.3,95.6c-3.5,3.3-9,3.3-12.5,0c-1.7-1.6-2.6-3.9-2.5-6.2c-0.1-2.3,0.9-4.6,2.5-6.2c3.5-3.3,9-3.3,12.5,0
			c1.7,1.6,2.6,3.9,2.5,6.2C381.9,91.7,381,94,379.3,95.6z M378.1,89.4c0-1.4-0.5-2.8-1.4-3.9c-1.7-1.9-4.7-2.1-6.6-0.4
			c-0.2,0.1-0.3,0.3-0.4,0.4c-1,1.1-1.5,2.4-1.4,3.9c0,1.4,0.5,2.8,1.4,3.9c1.7,1.9,4.7,2.1,6.7,0.4c0.1-0.1,0.3-0.3,0.4-0.4
			C377.6,92.2,378.1,90.8,378.1,89.4L378.1,89.4z"/>
		
			<linearGradient id="SVGID_8_" gradientUnits="userSpaceOnUse" x1="229.8263" y1="-199.2048" x2="409.3405" y2="-196.2571" gradientTransform="matrix(1 0 0 1 0 286)">
			<stop  offset="0" style="stop-color:#488DFB"/>
			<stop  offset="1" style="stop-color:#FF5252"/>
		</linearGradient>
		<path class="st8" d="M394,84.3V98h-3.7V84.3h-4.7V81h13.2v3.3H394z"/>
		
			<linearGradient id="SVGID_9_" gradientUnits="userSpaceOnUse" x1="229.8289" y1="-199.4293" x2="409.3431" y2="-196.4816" gradientTransform="matrix(1 0 0 1 0 286)">
			<stop  offset="0" style="stop-color:#488DFB"/>
			<stop  offset="1" style="stop-color:#FF5252"/>
		</linearGradient>
		<path class="st9" d="M408.3,93.6c0.6,0.8,1.5,1.2,2.5,1.2s1.9-0.4,2.5-1.2c0.6-0.8,0.9-1.9,0.9-3.2V81h3.7v9.5
			c0,2.5-0.7,4.3-2,5.7c-1.3,1.3-3.1,2-5.1,2c-2.1,0-3.8-0.7-5.2-2c-1.3-1.3-2-3.2-2-5.6V81h3.7v9.4
			C407.4,91.7,407.7,92.8,408.3,93.6z"/>
		
			<linearGradient id="SVGID_10_" gradientUnits="userSpaceOnUse" x1="229.8327" y1="-199.7368" x2="409.3469" y2="-196.7891" gradientTransform="matrix(1 0 0 1 0 286)">
			<stop  offset="0" style="stop-color:#488DFB"/>
			<stop  offset="1" style="stop-color:#FF5252"/>
		</linearGradient>
		<path class="st10" d="M428.2,84.4c-0.4,0.3-0.6,0.7-0.5,1.2c0,0.5,0.2,0.9,0.7,1.2c0.4,0.3,1.5,0.6,3,1s2.8,1,3.7,1.8
			c0.9,0.8,1.3,1.9,1.3,3.5c0,1.4-0.6,2.8-1.7,3.7c-1.1,0.9-2.6,1.4-4.4,1.4c-2.6,0-5-1-7.2-3l2.2-2.7c1.8,1.6,3.5,2.4,5,2.4
			c0.6,0,1.1-0.1,1.6-0.4c0.4-0.3,0.6-0.7,0.6-1.2s-0.2-0.9-0.6-1.2c-0.4-0.3-1.2-0.6-2.5-0.9c-1.9-0.5-3.4-1.1-4.3-1.8
			c-0.9-0.8-1.4-1.9-1.4-3.5s0.6-2.8,1.7-3.7c1.1-0.9,2.6-1.3,4.3-1.3c1.1,0,2.3,0.2,3.3,0.6c1.1,0.4,2.1,0.9,2.9,1.6l-1.9,2.8
			c-1.5-1.1-3-1.7-4.5-1.7C429.1,83.9,428.6,84.1,428.2,84.4z"/>
	</g>
</g>
<g id="Layer_2_1_">
	<g id="Layer_2-2">
		<path class="st11" d="M329.4,196.6c0-1,0.3-1.9,1-2.6c0.7-0.8,1.8-1.1,2.8-1.1c1-0.1,2,0.3,2.8,1.1c0.7,0.7,1,1.7,1,2.6
			c0,1-0.3,1.9-1,2.6c-0.8,0.7-1.8,1.1-2.8,1c-1.9,0.2-3.6-1.2-3.8-3C329.3,196.9,329.3,196.7,329.4,196.6L329.4,196.6z
			 M335.8,185.6h-5.7l-0.5-36.1h6.7L335.8,185.6z"/>
		<path class="st11" d="M333.5,218.1c-23.5,0-42.5-19-42.5-42.5s19-42.5,42.5-42.5s42.5,19,42.5,42.5S357,218.1,333.5,218.1
			L333.5,218.1z M333.5,135.1c-22.4,0-40.5,18.1-40.5,40.5s18.1,40.5,40.5,40.5S374,198,374,175.6
			C374,153.3,355.8,135.1,333.5,135.1L333.5,135.1z"/>
	</g>
</g>
<g>
	<path class="st12" d="M241.4,261.3v3.3h-1.1v-8.5h3.1c0.9,0,1.7,0.2,2.2,0.7s0.8,1.1,0.8,1.9c0,0.8-0.3,1.5-0.8,1.9
		s-1.3,0.7-2.2,0.7H241.4z M241.4,260.3h2c0.6,0,1.1-0.1,1.4-0.4c0.3-0.3,0.5-0.7,0.5-1.2c0-0.5-0.2-0.9-0.5-1.2
		c-0.3-0.3-0.8-0.5-1.3-0.5h-2.1V260.3z"/>
	<path class="st12" d="M248.9,263.7h4v0.9h-5.2v-8.5h1.1V263.7z"/>
	<path class="st12" d="M259.1,260.7h-3.7v3h4.3v0.9h-5.4v-8.5h5.4v0.9h-4.2v2.7h3.7V260.7z"/>
	<path class="st12" d="M265.8,262.4h-3.6l-0.8,2.2h-1.2l3.3-8.5h1l3.3,8.5h-1.2L265.8,262.4z M262.6,261.4h2.9l-1.5-4L262.6,261.4z"
		/>
	<path class="st12" d="M271.4,260.8c-1-0.3-1.7-0.6-2.1-1s-0.7-0.9-0.7-1.5c0-0.7,0.3-1.2,0.8-1.7s1.2-0.7,2.1-0.7
		c0.6,0,1.1,0.1,1.6,0.3s0.8,0.5,1.1,0.9s0.4,0.8,0.4,1.3h-1.1c0-0.5-0.2-0.9-0.5-1.2s-0.8-0.4-1.4-0.4c-0.6,0-1,0.1-1.3,0.4
		c-0.3,0.2-0.5,0.6-0.5,1c0,0.3,0.1,0.6,0.4,0.9c0.3,0.2,0.8,0.5,1.5,0.7c0.7,0.2,1.3,0.4,1.7,0.7s0.7,0.5,0.9,0.8s0.3,0.7,0.3,1.1
		c0,0.7-0.3,1.2-0.8,1.7s-1.3,0.6-2.2,0.6c-0.6,0-1.1-0.1-1.6-0.3s-0.9-0.5-1.2-0.9s-0.4-0.8-0.4-1.3h1.1c0,0.5,0.2,0.9,0.6,1.2
		s0.9,0.4,1.5,0.4c0.6,0,1-0.1,1.4-0.4s0.5-0.6,0.5-1s-0.1-0.7-0.4-1S272.2,261,271.4,260.8z"/>
	<path class="st12" d="M280.9,260.7h-3.7v3h4.3v0.9H276v-8.5h5.4v0.9h-4.2v2.7h3.7V260.7z"/>
	<path class="st12" d="M291.8,256.1v5.8c0,0.8-0.3,1.5-0.8,2s-1.2,0.8-2,0.9l-0.3,0c-0.9,0-1.7-0.3-2.2-0.8s-0.8-1.2-0.8-2.1v-5.8
		h1.1v5.8c0,0.6,0.2,1.1,0.5,1.4s0.8,0.5,1.5,0.5c0.6,0,1.1-0.2,1.5-0.5s0.5-0.8,0.5-1.4v-5.8H291.8z"/>
	<path class="st12" d="M296.1,260.8c-1-0.3-1.7-0.6-2.1-1s-0.7-0.9-0.7-1.5c0-0.7,0.3-1.2,0.8-1.7s1.2-0.7,2.1-0.7
		c0.6,0,1.1,0.1,1.6,0.3s0.8,0.5,1.1,0.9s0.4,0.8,0.4,1.3h-1.1c0-0.5-0.2-0.9-0.5-1.2s-0.8-0.4-1.4-0.4c-0.6,0-1,0.1-1.3,0.4
		c-0.3,0.2-0.5,0.6-0.5,1c0,0.3,0.1,0.6,0.4,0.9c0.3,0.2,0.8,0.5,1.5,0.7c0.7,0.2,1.3,0.4,1.7,0.7s0.7,0.5,0.9,0.8s0.3,0.7,0.3,1.1
		c0,0.7-0.3,1.2-0.8,1.7s-1.3,0.6-2.2,0.6c-0.6,0-1.1-0.1-1.6-0.3s-0.9-0.5-1.2-0.9s-0.4-0.8-0.4-1.3h1.1c0,0.5,0.2,0.9,0.6,1.2
		s0.9,0.4,1.5,0.4c0.6,0,1-0.1,1.4-0.4s0.5-0.6,0.5-1s-0.1-0.7-0.4-1S296.9,261,296.1,260.8z"/>
	<path class="st12" d="M305.6,260.7h-3.7v3h4.3v0.9h-5.4v-8.5h5.4v0.9h-4.2v2.7h3.7V260.7z"/>
	<path class="st12" d="M315.2,262.4h-3.6l-0.8,2.2h-1.2l3.3-8.5h1l3.3,8.5H316L315.2,262.4z M312,261.4h2.9l-1.5-4L312,261.4z"/>
	<path class="st12" d="M322.8,256.1l2.8,7l2.8-7h1.5v8.5h-1.1v-3.3l0.1-3.6l-2.8,6.9h-0.9l-2.8-6.9l0.1,3.6v3.3h-1.1v-8.5H322.8z"/>
	<path class="st12" d="M338.4,260.6c0,0.8-0.1,1.6-0.4,2.2s-0.7,1.1-1.2,1.4s-1.1,0.5-1.8,0.5c-0.7,0-1.3-0.2-1.8-0.5
		s-0.9-0.8-1.2-1.4s-0.4-1.3-0.4-2.1v-0.6c0-0.8,0.1-1.5,0.4-2.2s0.7-1.1,1.2-1.4s1.1-0.5,1.8-0.5c0.7,0,1.3,0.2,1.8,0.5
		s0.9,0.8,1.2,1.4s0.4,1.4,0.4,2.2V260.6z M337.2,260.1c0-1-0.2-1.8-0.6-2.3s-1-0.8-1.7-0.8c-0.7,0-1.3,0.3-1.7,0.8
		s-0.6,1.3-0.6,2.3v0.6c0,1,0.2,1.8,0.6,2.3s1,0.8,1.7,0.8c0.7,0,1.3-0.3,1.7-0.8s0.6-1.3,0.6-2.3V260.1z"/>
	<path class="st12" d="M340,264.6v-8.5h2.4c0.7,0,1.4,0.2,2,0.5s1,0.8,1.3,1.4s0.5,1.3,0.5,2.1v0.5c0,0.8-0.2,1.5-0.5,2.1
		s-0.8,1.1-1.3,1.4s-1.2,0.5-2,0.5H340z M341.2,257v6.7h1.2c0.9,0,1.5-0.3,2-0.8c0.5-0.5,0.7-1.3,0.7-2.3v-0.5c0-1-0.2-1.7-0.7-2.3
		c-0.5-0.5-1.1-0.8-1.9-0.8H341.2z"/>
	<path class="st12" d="M352.7,260.7H349v3h4.3v0.9h-5.4v-8.5h5.4v0.9H349v2.7h3.7V260.7z"/>
	<path class="st12" d="M357.9,261.1h-2v3.5h-1.1v-8.5h2.8c1,0,1.7,0.2,2.2,0.7s0.8,1.1,0.8,1.9c0,0.5-0.1,1-0.4,1.4
		s-0.7,0.7-1.2,0.9l2,3.6v0.1h-1.2L357.9,261.1z M355.9,260.2h1.7c0.6,0,1-0.1,1.3-0.4c0.3-0.3,0.5-0.7,0.5-1.2
		c0-0.5-0.2-0.9-0.5-1.2c-0.3-0.3-0.8-0.4-1.4-0.4h-1.7V260.2z"/>
	<path class="st12" d="M368.7,264.6h-1.1l-4.3-6.6v6.6h-1.1v-8.5h1.1l4.3,6.6v-6.6h1.1V264.6z"/>
	<path class="st12" d="M373.7,264.6v-8.5h2.8c0.9,0,1.6,0.2,2.1,0.6s0.7,0.9,0.7,1.7c0,0.4-0.1,0.8-0.3,1.1s-0.5,0.5-0.9,0.7
		c0.5,0.1,0.8,0.4,1.1,0.7s0.4,0.8,0.4,1.3c0,0.8-0.2,1.4-0.7,1.8s-1.2,0.7-2.1,0.7H373.7z M374.8,259.7h1.7c0.5,0,0.9-0.1,1.2-0.4
		c0.3-0.2,0.4-0.6,0.4-1c0-0.5-0.1-0.8-0.4-1s-0.7-0.3-1.2-0.3h-1.7V259.7z M374.8,260.6v3.1h1.9c0.5,0,0.9-0.1,1.2-0.4
		s0.5-0.6,0.5-1.1c0-1-0.6-1.5-1.7-1.5H374.8z"/>
	<path class="st12" d="M384.3,261.1h-2v3.5h-1.1v-8.5h2.8c1,0,1.7,0.2,2.2,0.7s0.8,1.1,0.8,1.9c0,0.5-0.1,1-0.4,1.4
		s-0.7,0.7-1.2,0.9l2,3.6v0.1h-1.2L384.3,261.1z M382.2,260.2h1.7c0.6,0,1-0.1,1.3-0.4c0.3-0.3,0.5-0.7,0.5-1.2
		c0-0.5-0.2-0.9-0.5-1.2c-0.3-0.3-0.8-0.4-1.4-0.4h-1.7V260.2z"/>
	<path class="st12" d="M395.1,260.6c0,0.8-0.1,1.6-0.4,2.2s-0.7,1.1-1.2,1.4s-1.1,0.5-1.8,0.5c-0.7,0-1.3-0.2-1.8-0.5
		s-0.9-0.8-1.2-1.4s-0.4-1.3-0.4-2.1v-0.6c0-0.8,0.1-1.5,0.4-2.2s0.7-1.1,1.2-1.4s1.1-0.5,1.8-0.5c0.7,0,1.3,0.2,1.8,0.5
		s0.9,0.8,1.2,1.4s0.4,1.4,0.4,2.2V260.6z M394,260.1c0-1-0.2-1.8-0.6-2.3s-1-0.8-1.7-0.8c-0.7,0-1.3,0.3-1.7,0.8s-0.6,1.3-0.6,2.3
		v0.6c0,1,0.2,1.8,0.6,2.3s1,0.8,1.7,0.8c0.7,0,1.3-0.3,1.7-0.8s0.6-1.3,0.6-2.3V260.1z"/>
	<path class="st12" d="M398.6,261.9l0.2,1.1l0.2-1l1.7-6h0.9l1.6,6l0.2,1l0.2-1.1l1.3-5.8h1.1l-2.1,8.5h-1l-1.8-6.2l-0.1-0.7
		l-0.1,0.7l-1.8,6.2h-1l-2.1-8.5h1.1L398.6,261.9z"/>
	<path class="st12" d="M409.9,260.8c-1-0.3-1.7-0.6-2.1-1s-0.7-0.9-0.7-1.5c0-0.7,0.3-1.2,0.8-1.7s1.2-0.7,2.1-0.7
		c0.6,0,1.1,0.1,1.6,0.3s0.8,0.5,1.1,0.9s0.4,0.8,0.4,1.3h-1.1c0-0.5-0.2-0.9-0.5-1.2s-0.8-0.4-1.4-0.4c-0.6,0-1,0.1-1.3,0.4
		c-0.3,0.2-0.5,0.6-0.5,1c0,0.3,0.1,0.6,0.4,0.9c0.3,0.2,0.8,0.5,1.5,0.7c0.7,0.2,1.3,0.4,1.7,0.7s0.7,0.5,0.9,0.8s0.3,0.7,0.3,1.1
		c0,0.7-0.3,1.2-0.8,1.7s-1.3,0.6-2.2,0.6c-0.6,0-1.1-0.1-1.6-0.3s-0.9-0.5-1.2-0.9s-0.4-0.8-0.4-1.3h1.1c0,0.5,0.2,0.9,0.6,1.2
		s0.9,0.4,1.5,0.4c0.6,0,1-0.1,1.4-0.4s0.5-0.6,0.5-1s-0.1-0.7-0.4-1S410.7,261,409.9,260.8z"/>
	<path class="st12" d="M419.3,260.7h-3.7v3h4.3v0.9h-5.4v-8.5h5.4v0.9h-4.2v2.7h3.7V260.7z"/>
	<path class="st12" d="M424.5,261.1h-2v3.5h-1.1v-8.5h2.8c1,0,1.7,0.2,2.2,0.7s0.8,1.1,0.8,1.9c0,0.5-0.1,1-0.4,1.4
		s-0.7,0.7-1.2,0.9l2,3.6v0.1h-1.2L424.5,261.1z M422.5,260.2h1.7c0.6,0,1-0.1,1.3-0.4c0.3-0.3,0.5-0.7,0.5-1.2
		c0-0.5-0.2-0.9-0.5-1.2c-0.3-0.3-0.8-0.4-1.4-0.4h-1.7V260.2z"/>
	<path class="st12" d="M272.9,278.1h4v0.9h-5.2v-8.5h1.1V278.1z"/>
	<path class="st12" d="M279.4,279h-1.1v-8.5h1.1V279z"/>
	<path class="st12" d="M283.7,275l-1,1.1v2.9h-1.1v-8.5h1.1v4.2l3.8-4.2h1.4l-3.4,3.8l3.6,4.8h-1.3L283.7,275z"/>
	<path class="st12" d="M293.8,275.1h-3.7v3h4.3v0.9H289v-8.5h5.4v0.9h-4.2v2.7h3.7V275.1z"/>
	<path class="st12" d="M305.1,277.9c-0.3,0.4-0.7,0.7-1.2,0.9s-1.1,0.3-1.8,0.3c-0.7,0-1.3-0.2-1.9-0.5s-1-0.8-1.3-1.4
		s-0.4-1.3-0.5-2.1v-0.7c0-1.3,0.3-2.3,0.9-3s1.4-1.1,2.5-1.1c0.9,0,1.6,0.2,2.2,0.7s0.9,1.1,1,1.9H304c-0.2-1.1-0.9-1.7-2-1.7
		c-0.8,0-1.3,0.3-1.7,0.8c-0.4,0.5-0.6,1.3-0.6,2.3v0.7c0,1,0.2,1.7,0.7,2.3c0.4,0.6,1,0.8,1.8,0.8c0.4,0,0.8,0,1.1-0.1
		s0.6-0.3,0.8-0.5v-1.9h-2v-0.9h3.1V277.9z"/>
	<path class="st12" d="M313.5,275c0,0.8-0.1,1.6-0.4,2.2s-0.7,1.1-1.2,1.4s-1.1,0.5-1.8,0.5c-0.7,0-1.3-0.2-1.8-0.5
		s-0.9-0.8-1.2-1.4s-0.4-1.3-0.4-2.1v-0.6c0-0.8,0.1-1.5,0.4-2.2s0.7-1.1,1.2-1.4s1.1-0.5,1.8-0.5c0.7,0,1.3,0.2,1.8,0.5
		s0.9,0.8,1.2,1.4s0.4,1.4,0.4,2.2V275z M312.4,274.5c0-1-0.2-1.8-0.6-2.3s-1-0.8-1.7-0.8c-0.7,0-1.3,0.3-1.7,0.8s-0.6,1.3-0.6,2.3
		v0.6c0,1,0.2,1.8,0.6,2.3s1,0.8,1.7,0.8c0.7,0,1.3-0.3,1.7-0.8s0.6-1.3,0.6-2.3V274.5z"/>
	<path class="st12" d="M321.8,275c0,0.8-0.1,1.6-0.4,2.2s-0.7,1.1-1.2,1.4s-1.1,0.5-1.8,0.5c-0.7,0-1.3-0.2-1.8-0.5
		s-0.9-0.8-1.2-1.4s-0.4-1.3-0.4-2.1v-0.6c0-0.8,0.1-1.5,0.4-2.2s0.7-1.1,1.2-1.4s1.1-0.5,1.8-0.5c0.7,0,1.3,0.2,1.8,0.5
		s0.9,0.8,1.2,1.4s0.4,1.4,0.4,2.2V275z M320.7,274.5c0-1-0.2-1.8-0.6-2.3s-1-0.8-1.7-0.8c-0.7,0-1.3,0.3-1.7,0.8s-0.6,1.3-0.6,2.3
		v0.6c0,1,0.2,1.8,0.6,2.3s1,0.8,1.7,0.8c0.7,0,1.3-0.3,1.7-0.8s0.6-1.3,0.6-2.3V274.5z"/>
	<path class="st12" d="M329.8,277.9c-0.3,0.4-0.7,0.7-1.2,0.9s-1.1,0.3-1.8,0.3c-0.7,0-1.3-0.2-1.9-0.5s-1-0.8-1.3-1.4
		s-0.4-1.3-0.5-2.1v-0.7c0-1.3,0.3-2.3,0.9-3s1.4-1.1,2.5-1.1c0.9,0,1.6,0.2,2.2,0.7s0.9,1.1,1,1.9h-1.1c-0.2-1.1-0.9-1.7-2-1.7
		c-0.8,0-1.3,0.3-1.7,0.8c-0.4,0.5-0.6,1.3-0.6,2.3v0.7c0,1,0.2,1.7,0.7,2.3c0.4,0.6,1,0.8,1.8,0.8c0.4,0,0.8,0,1.1-0.1
		s0.6-0.3,0.8-0.5v-1.9h-2v-0.9h3.1V277.9z"/>
	<path class="st12" d="M332.8,278.1h4v0.9h-5.2v-8.5h1.1V278.1z"/>
	<path class="st12" d="M342.9,275.1h-3.7v3h4.3v0.9h-5.4v-8.5h5.4v0.9h-4.2v2.7h3.7V275.1z"/>
	<path class="st12" d="M354.2,276.3c-0.1,0.9-0.4,1.6-1,2.1s-1.3,0.7-2.2,0.7c-1,0-1.8-0.4-2.4-1.1s-0.9-1.7-0.9-2.9v-0.8
		c0-0.8,0.1-1.5,0.4-2.1s0.7-1.1,1.2-1.4s1.1-0.5,1.8-0.5c0.9,0,1.6,0.3,2.2,0.8s0.9,1.2,1,2.1H353c-0.1-0.7-0.3-1.2-0.6-1.5
		s-0.8-0.5-1.4-0.5c-0.7,0-1.3,0.3-1.7,0.8c-0.4,0.5-0.6,1.3-0.6,2.3v0.8c0,0.9,0.2,1.7,0.6,2.2c0.4,0.5,0.9,0.8,1.6,0.8
		c0.6,0,1.1-0.1,1.4-0.4s0.6-0.8,0.7-1.5H354.2z"/>
	<path class="st12" d="M362.3,279h-1.1v-3.9h-4.3v3.9h-1.1v-8.5h1.1v3.7h4.3v-3.7h1.1V279z"/>
	<path class="st12" d="M367.4,275.5h-2v3.5h-1.1v-8.5h2.8c1,0,1.7,0.2,2.2,0.7s0.8,1.1,0.8,1.9c0,0.5-0.1,1-0.4,1.4
		s-0.7,0.7-1.2,0.9l2,3.6v0.1h-1.2L367.4,275.5z M365.4,274.6h1.7c0.6,0,1-0.1,1.3-0.4s0.5-0.7,0.5-1.2c0-0.5-0.2-0.9-0.5-1.2
		c-0.3-0.3-0.8-0.4-1.4-0.4h-1.7V274.6z"/>
	<path class="st12" d="M378.2,275c0,0.8-0.1,1.6-0.4,2.2s-0.7,1.1-1.2,1.4s-1.1,0.5-1.8,0.5c-0.7,0-1.3-0.2-1.8-0.5
		s-0.9-0.8-1.2-1.4s-0.4-1.3-0.4-2.1v-0.6c0-0.8,0.1-1.5,0.4-2.2s0.7-1.1,1.2-1.4s1.1-0.5,1.8-0.5c0.7,0,1.3,0.2,1.8,0.5
		s0.9,0.8,1.2,1.4s0.4,1.4,0.4,2.2V275z M377.1,274.5c0-1-0.2-1.8-0.6-2.3s-1-0.8-1.7-0.8c-0.7,0-1.3,0.3-1.7,0.8s-0.6,1.3-0.6,2.3
		v0.6c0,1,0.2,1.8,0.6,2.3s1,0.8,1.7,0.8c0.7,0,1.3-0.3,1.7-0.8s0.6-1.3,0.6-2.3V274.5z"/>
	<path class="st12" d="M381.4,270.5l2.8,7l2.8-7h1.5v8.5h-1.1v-3.3l0.1-3.6l-2.8,6.9h-0.9l-2.8-6.9l0.1,3.6v3.3h-1.1v-8.5H381.4z"/>
	<path class="st12" d="M395.2,275.1h-3.7v3h4.3v0.9h-5.4v-8.5h5.4v0.9h-4.2v2.7h3.7V275.1z"/>
</g>
</svg>
