<?xml version="1.0" encoding="utf-8"?>
<!-- Generator: Adobe Illustrator 20.1.0, SVG Export Plug-In . SVG Version: 6.00 Build 0)  -->
<svg version="1.1" id="Layer_1" xmlns="http://www.w3.org/2000/svg" xmlns:xlink="http://www.w3.org/1999/xlink" x="0px" y="0px"
	 viewBox="0 0 667 375" style="enable-background:new 0 0 667 375;" xml:space="preserve">
<style type="text/css">
	.st0{fill:#112340;}
	.st1{fill:#FFFFFF;}
	.st2{opacity:0.25;}
	.st3{fill:none;stroke:#FFFFFF;stroke-miterlimit:10;}
	.st4{fill:none;stroke:#FFEB3B;stroke-miterlimit:10;}
	.st5{fill:#FFEB3B;}
	.st6{fill:url(#SVGID_1_);}
	.st7{fill:url(#SVGID_2_);}
	.st8{fill:url(#SVGID_3_);}
	.st9{fill:url(#SVGID_4_);}
	.st10{fill:url(#SVGID_5_);}
	.st11{fill:url(#SVGID_6_);}
	.st12{fill:url(#SVGID_7_);}
	.st13{fill:url(#SVGID_8_);}
	.st14{fill:url(#SVGID_9_);}
	.st15{fill:url(#SVGID_10_);}
</style>
<title>mobile_landscape</title>
<g id="tutorial">
	<rect class="st0" width="667" height="375"/>
	<g>
		<g>
			<path class="st1" d="M266,251.9c0.7-0.1,1.3-0.2,2-0.2c0.8-0.1,1.6,0.2,2.3,0.7c0.5,0.4,0.7,1,0.7,1.7c0,0.6-0.2,1.3-0.6,1.7
				c-0.7,0.6-1.6,0.9-2.5,0.9c-0.3,0-0.6,0-0.8-0.1v3.2h-1L266,251.9z M267,255.8c0.3,0.1,0.6,0.1,0.9,0.1c1.3,0,2-0.6,2-1.7
				s-0.8-1.6-1.9-1.6c-0.3,0-0.7,0-1,0.1L267,255.8z"/>
			<path class="st1" d="M272.4,251.8h1v7.2h3.5v0.9h-4.5L272.4,251.8z"/>
			<path class="st1" d="M282.3,256.1h-3.1v2.9h3.5v0.9h-4.5v-8.1h4.4v0.9h-3.3v2.6h3.1V256.1z"/>
			<path class="st1" d="M285.3,257.3l-0.8,2.5h-1.1l2.8-8.1h1.3l2.8,8.1H289l-0.9-2.5H285.3z M287.9,256.5l-0.8-2.3
				c-0.2-0.5-0.3-1-0.4-1.5l0,0c-0.1,0.5-0.2,1-0.4,1.5l-0.8,2.3L287.9,256.5z"/>
			<path class="st1" d="M291.2,258.6c0.6,0.3,1.2,0.5,1.9,0.5c1.1,0,1.7-0.6,1.7-1.4s-0.4-1.2-1.5-1.6c-1.3-0.5-2.1-1.1-2.1-2.3
				c0.1-1.3,1.2-2.3,2.4-2.2c0.1,0,0.1,0,0.2,0c0.6,0,1.2,0.1,1.8,0.4l-0.3,0.9c-0.5-0.3-1-0.4-1.5-0.4c-1.1,0-1.5,0.7-1.5,1.2
				c0,0.8,0.5,1.1,1.6,1.6c1.4,0.5,2.1,1.2,2.1,2.4s-0.9,2.3-2.8,2.3c-0.7,0-1.4-0.2-2.1-0.5L291.2,258.6z"/>
			<path class="st1" d="M301.4,256.1h-3.1v2.9h3.5v0.9h-4.5v-8.1h4.4v0.9h-3.3v2.6h3.1V256.1z"/>
			<path class="st1" d="M306.7,252.6h-2.5v-0.9h6v0.9h-2.5v7.2h-1.1L306.7,252.6z"/>
			<path class="st1" d="M312.2,251.8v4.8c0,1.8,0.8,2.6,1.9,2.6s2-0.8,2-2.6v-4.8h1.1v4.7c0,2.5-1.3,3.5-3.1,3.5s-2.9-1-2.9-3.5
				v-4.7H312.2z"/>
			<path class="st1" d="M318.9,251.9c0.7-0.1,1.3-0.2,2-0.2c0.8-0.1,1.7,0.2,2.3,0.7c0.4,0.4,0.7,1,0.6,1.5c0,0.9-0.6,1.8-1.5,2.1
				l0,0c0.7,0.3,1.1,0.9,1.2,1.6c0.1,0.8,0.3,1.5,0.6,2.2h-1.1c-0.2-0.6-0.4-1.3-0.5-1.9c-0.2-1.1-0.7-1.5-1.6-1.6h-1v3.5h-1
				L318.9,251.9z M319.9,255.5h1.1c1.1,0,1.8-0.6,1.8-1.5s-0.8-1.5-1.9-1.5c-0.3,0-0.7,0-1,0.1L319.9,255.5z"/>
			<path class="st1" d="M325.4,259.8v-8.1h1.1l2.6,4.1c0.5,0.8,1,1.7,1.5,2.6l0,0c-0.1-1.1-0.1-2.1-0.1-3.3v-3.4h1v8.1h-1l-2.6-4.1
				c-0.6-0.9-1.1-1.8-1.5-2.7l0,0c0.1,1,0.1,2,0.1,3.3v3.4L325.4,259.8z"/>
			<path class="st1" d="M337.1,259.8v-3.4l-2.6-4.7h1.2l1.1,2.2c0.3,0.6,0.5,1.1,0.8,1.7l0,0c0.2-0.5,0.5-1.1,0.8-1.7l1.2-2.2h1.2
				l-2.7,4.6v3.4H337.1z"/>
			<path class="st1" d="M348.2,255.8c0,2.8-1.7,4.3-3.8,4.3s-3.6-1.7-3.6-4.1s1.6-4.2,3.8-4.2S348.2,253.3,348.2,255.8z M342,255.9
				c0,1.7,0.9,3.3,2.6,3.3s2.6-1.5,2.6-3.4c0-1.6-0.8-3.3-2.6-3.3S342,254.1,342,255.9L342,255.9z"/>
			<path class="st1" d="M350.6,251.8v4.8c0,1.8,0.8,2.6,1.9,2.6s2-0.8,2-2.6v-4.8h1.1v4.7c0,2.5-1.3,3.5-3.1,3.5s-2.9-1-2.9-3.5
				v-4.7H350.6z"/>
			<path class="st1" d="M357.4,251.9c0.7-0.1,1.3-0.2,2-0.2c0.8-0.1,1.7,0.2,2.3,0.7c0.4,0.4,0.7,1,0.6,1.5c0,0.9-0.6,1.8-1.5,2.1
				l0,0c0.7,0.3,1.1,0.9,1.2,1.6c0.1,0.8,0.3,1.5,0.6,2.2h-1.1c-0.2-0.6-0.4-1.3-0.5-1.9c-0.2-1.1-0.7-1.5-1.6-1.6h-1v3.5h-1
				L357.4,251.9z M358.4,255.5h1.1c1.1,0,1.8-0.6,1.8-1.5s-0.8-1.5-1.9-1.5c-0.3,0-0.7,0-1,0.1L358.4,255.5z"/>
			<path class="st1" d="M366.4,251.9c0.7-0.1,1.5-0.2,2.2-0.2c1.2-0.1,2.3,0.3,3.3,1c0.8,0.8,1.2,1.8,1.1,2.9
				c0.1,1.2-0.4,2.3-1.2,3.1c-1,0.8-2.3,1.3-3.6,1.2c-0.6,0-1.3,0-1.9-0.1V251.9z M367.4,259c0.4,0,0.7,0.1,1.1,0.1
				c1.7,0.2,3.2-1,3.4-2.7c0-0.2,0-0.5,0-0.7c0-1.9-1.1-3.1-3.3-3.1c-0.4,0-0.8,0-1.2,0.1L367.4,259z"/>
			<path class="st1" d="M378.5,256.1h-3.1v2.9h3.5v0.9h-4.5v-8.1h4.4v0.9h-3.3v2.6h3.1V256.1z"/>
			<path class="st1" d="M382.1,259.8l-2.6-8.1h1.1l1.3,4c0.4,1.1,0.6,2.1,0.9,3l0,0c0.2-0.9,0.6-2,0.9-3l1.4-4h1.1l-2.9,8.1H382.1z"
				/>
			<path class="st1" d="M388.1,251.8v8.1h-1v-8.1H388.1z"/>
			<path class="st1" d="M395.6,259.6c-0.7,0.3-1.4,0.4-2.1,0.4c-2.1,0.1-3.9-1.5-4-3.5c0-0.2,0-0.4,0-0.6c-0.1-2.2,1.5-4.1,3.7-4.2
				c0.2,0,0.3,0,0.5,0c0.7,0,1.3,0.1,1.9,0.4l-0.2,0.9c-0.5-0.2-1.1-0.3-1.6-0.3c-1.7-0.1-3.1,1.2-3.2,2.8c0,0.2,0,0.3,0,0.5
				c-0.2,1.6,1,3.1,2.6,3.2c0.2,0,0.3,0,0.5,0c0.6,0,1.2-0.1,1.7-0.3L395.6,259.6z"/>
			<path class="st1" d="M401.1,256.1h-3.1v2.9h3.5v0.9h-4.5v-8.1h4.4v0.9h-3.3v2.6h3.1V256.1z"/>
			<path class="st1" d="M237.2,266.2v8.1h-1v-8.1H237.2z"/>
			<path class="st1" d="M239,274.2v-8.1h1.1l2.6,4.1c0.5,0.8,1,1.7,1.4,2.6l0,0c-0.1-1.1-0.1-2.1-0.1-3.3v-3.4h1v8.1H244l-2.6-4.1
				c-0.6-0.9-1.1-1.8-1.5-2.7l0,0c0.1,1,0.1,2,0.1,3.3v3.4L239,274.2z"/>
			<path class="st1" d="M249.5,266.3c0.7-0.1,1.3-0.2,2-0.2c0.8-0.1,1.6,0.2,2.3,0.7c0.5,0.4,0.7,1,0.7,1.7c0,0.6-0.2,1.3-0.6,1.7
				c-0.7,0.6-1.6,0.9-2.5,0.9c-0.3,0-0.6,0-0.8-0.1v3.2h-1L249.5,266.3z M250.5,270.2c0.3,0.1,0.6,0.1,0.9,0.1c1.3,0,2-0.6,2-1.7
				s-0.8-1.6-1.9-1.6c-0.3,0-0.7,0-1,0.1L250.5,270.2z"/>
			<path class="st1" d="M262.8,270.1c0,2.8-1.7,4.3-3.8,4.3s-3.6-1.7-3.6-4.1s1.6-4.2,3.8-4.2S262.8,267.8,262.8,270.1z
				 M256.5,270.2c0,1.7,0.9,3.3,2.6,3.3s2.6-1.5,2.6-3.4c0-1.6-0.8-3.3-2.6-3.3S256.5,268.5,256.5,270.2L256.5,270.2z"/>
			<path class="st1" d="M264.1,266.3c0.7-0.1,1.3-0.2,2-0.2c0.8-0.1,1.7,0.2,2.3,0.7c0.4,0.4,0.7,1,0.6,1.5c0,0.9-0.6,1.8-1.5,2.1
				l0,0c0.7,0.3,1.1,0.9,1.2,1.6c0.1,0.8,0.3,1.5,0.6,2.2h-1.1c-0.2-0.6-0.4-1.3-0.5-1.9c-0.2-1.1-0.7-1.5-1.6-1.6h-1v3.5h-1
				L264.1,266.3z M265.1,269.9h1.1c1.1,0,1.8-0.6,1.8-1.5s-0.8-1.5-1.9-1.5c-0.3,0-0.7,0-1,0.1L265.1,269.9z"/>
			<path class="st1" d="M272.2,267h-2.5v-0.9h6v0.9h-2.5v7.2h-1.1L272.2,267z"/>
			<path class="st1" d="M276.6,266.3c0.7-0.1,1.3-0.2,2-0.2c0.8-0.1,1.7,0.2,2.4,0.7c0.4,0.4,0.7,1,0.6,1.5c0,0.9-0.6,1.8-1.5,2.1
				l0,0c0.7,0.3,1.1,0.9,1.2,1.6c0.1,0.8,0.3,1.5,0.6,2.2h-1.1c-0.2-0.6-0.4-1.3-0.5-1.9c-0.2-1.1-0.7-1.5-1.6-1.6h-1v3.5h-1
				L276.6,266.3z M277.6,269.9h1.1c1.1,0,1.8-0.6,1.8-1.5s-0.8-1.5-1.9-1.5c-0.3,0-0.7,0-1,0.1L277.6,269.9z"/>
			<path class="st1" d="M284.5,271.7l-0.8,2.5h-1.1l2.8-8.1h1.3l2.8,8.1h-1.1l-0.9-2.5H284.5z M287.1,270.9l-0.8-2.3
				c-0.2-0.5-0.3-1-0.4-1.5l0,0c-0.1,0.5-0.2,1-0.4,1.5l-0.8,2.3H287.1z"/>
			<path class="st1" d="M291.5,266.2v8.1h-1v-8.1H291.5z"/>
			<path class="st1" d="M294.9,267h-2.5v-0.9h6v0.9H296v7.2h-1.1V267z"/>
			<path class="st1" d="M308.7,270.7c-0.1-1.1-0.1-2.5-0.1-3.5l0,0c-0.3,0.9-0.6,2-1,3.1l-1.4,3.9h-0.8l-1.4-3.8
				c-0.4-1.1-0.7-2.2-0.9-3.1l0,0c0,1-0.1,2.4-0.2,3.6l-0.2,3.5h-1l0.6-8.1h1.3l1.4,3.9c0.3,1,0.6,1.9,0.8,2.7l0,0
				c0.2-0.8,0.5-1.7,0.9-2.7l1.4-3.9h1.3l0.5,8.1h-1L308.7,270.7z"/>
			<path class="st1" d="M318.4,270.1c0,2.8-1.7,4.3-3.8,4.3s-3.7-1.6-3.7-4.1c0-2.5,1.6-4.2,3.8-4.2S318.4,267.8,318.4,270.1z
				 M312.2,270.2c0,1.7,0.9,3.3,2.6,3.3s2.6-1.5,2.6-3.4c0-1.6-0.8-3.3-2.6-3.3S312.2,268.5,312.2,270.2L312.2,270.2z"/>
			<path class="st1" d="M319.8,266.3c0.7-0.1,1.5-0.2,2.2-0.2c1.2-0.1,2.3,0.3,3.3,1c0.8,0.8,1.2,1.8,1.1,2.9
				c0.1,1.2-0.4,2.3-1.2,3.1c-1,0.8-2.3,1.3-3.6,1.2c-0.6,0-1.3,0-1.9-0.1V266.3z M320.8,273.4c0.4,0,0.7,0.1,1.1,0.1
				c1.7,0.2,3.2-1,3.4-2.7c0-0.2,0-0.5,0-0.7c0-1.9-1.1-3.1-3.3-3.1c-0.4,0-0.8,0-1.2,0.1L320.8,273.4z"/>
			<path class="st1" d="M332,270.5h-3.1v2.9h3.5v0.9h-4.5v-8.1h4.4v0.9h-3.3v2.6h3.1V270.5z"/>
			<path class="st1" d="M337.3,267h-2.5v-0.9h6v0.9h-2.5v7.2h-1.1L337.3,267z"/>
			<path class="st1" d="M348.3,270.1c0,2.8-1.7,4.3-3.8,4.3s-3.6-1.7-3.6-4.1s1.6-4.2,3.8-4.2S348.3,267.8,348.3,270.1z M342,270.2
				c0,1.7,0.9,3.3,2.6,3.3s2.6-1.5,2.6-3.4c0-1.6-0.8-3.3-2.6-3.3S342,268.5,342,270.2L342,270.2z"/>
			<path class="st1" d="M356.4,270.5h-3.1v2.9h3.5v0.9h-4.5v-8.1h4.4v0.9h-3.3v2.6h3.1V270.5z"/>
			<path class="st1" d="M358.1,274.2v-8.1h1.1l2.6,4.1c0.5,0.8,1,1.7,1.5,2.6l0,0c-0.1-1.1-0.1-2.1-0.1-3.3v-3.4h1v8.1h-1.1
				l-2.6-4.1c-0.6-0.9-1.1-1.8-1.5-2.7l0,0c0.1,1,0.1,2,0.1,3.3v3.4L358.1,274.2z"/>
			<path class="st1" d="M367.6,266.2h1v5.4c0,2.1-1.1,2.8-2.5,2.8c-0.4,0-0.8-0.1-1.1-0.2l0.2-0.9c0.3,0.1,0.6,0.2,0.9,0.2
				c0.9,0,1.5-0.4,1.5-2L367.6,266.2z"/>
			<path class="st1" d="M377.3,270.1c0,2.8-1.7,4.3-3.8,4.3s-3.6-1.7-3.6-4.1s1.6-4.2,3.8-4.2S377.3,267.8,377.3,270.1z
				 M371.1,270.2c0,1.7,0.9,3.3,2.6,3.3s2.6-1.5,2.6-3.4c0-1.6-0.8-3.3-2.6-3.3S371.1,268.5,371.1,270.2L371.1,270.2z"/>
			<path class="st1" d="M380.2,274.2v-3.5l-2.5-4.6h1.2l1.1,2.2c0.3,0.6,0.5,1.1,0.8,1.7l0,0c0.2-0.5,0.5-1.1,0.8-1.7l1.2-2.2h1.2
				l-2.7,4.6v3.4L380.2,274.2z"/>
			<path class="st1" d="M388.4,267H386v-0.9h6v0.9h-2.5v7.2h-1.1V267z"/>
			<path class="st1" d="M393.9,266.2v3.4h3.9v-3.4h1v8.1h-1v-3.8h-3.9v3.8h-1v-8.1H393.9z"/>
			<path class="st1" d="M401.7,266.2v8.1h-1v-8.1H401.7z"/>
			<path class="st1" d="M403.4,273c0.6,0.3,1.2,0.5,1.9,0.5c1.1,0,1.7-0.6,1.7-1.4s-0.4-1.2-1.5-1.6c-1.3-0.5-2.1-1.1-2.1-2.3
				c0.1-1.3,1.2-2.3,2.4-2.2c0.1,0,0.1,0,0.2,0c0.6,0,1.2,0.1,1.8,0.4l-0.3,0.9c-0.5-0.3-1-0.4-1.5-0.4c-1.1,0-1.5,0.7-1.5,1.2
				c0,0.8,0.5,1.1,1.6,1.6c1.4,0.5,2.1,1.2,2.1,2.4s-0.9,2.3-2.8,2.3c-0.7,0-1.4-0.2-2.1-0.5L403.4,273z"/>
			<path class="st1" d="M411.9,273c0.6,0.3,1.2,0.5,1.9,0.5c1.1,0,1.7-0.6,1.7-1.4s-0.4-1.2-1.5-1.6c-1.3-0.5-2.1-1.1-2.1-2.3
				c0.1-1.3,1.2-2.3,2.4-2.2c0.1,0,0.1,0,0.2,0c0.6,0,1.2,0.1,1.8,0.4l-0.3,0.9c-0.5-0.3-1-0.4-1.5-0.4c-1.1,0-1.5,0.7-1.5,1.2
				c0,0.8,0.5,1.1,1.6,1.6c1.4,0.5,2.1,1.2,2.1,2.4s-0.9,2.3-2.8,2.3c-0.7,0-1.4-0.2-2.1-0.5L411.9,273z"/>
			<path class="st1" d="M419,266.2v8.1h-1v-8.1H419z"/>
			<path class="st1" d="M422.3,267h-2.5v-0.9h6v0.9h-2.5v7.2h-1.1L422.3,267z"/>
			<path class="st1" d="M431,270.5h-3.1v2.9h3.5v0.9h-4.5v-8.1h4.4v0.9h-3.3v2.6h3.1V270.5z"/>
		</g>
		<g>
			<g class="st2">
				<path class="st3" d="M303.7,170.9h79.6c2.6,0,4.7,2.1,4.7,4.7v39.6c0,2.6-2.1,4.7-4.7,4.7h-79.6c-2.6,0-4.7-2.1-4.7-4.7v-39.6
					C299,173,301.1,170.9,303.7,170.9z"/>
				<rect x="309" y="175.9" class="st3" width="69" height="39"/>
				<path class="st3" d="M382.7,188.4L382.7,188.4c0.6,0,1,0.4,1,1v12c0,0.6-0.4,1-1,1l0,0c-0.6,0-1-0.4-1-1v-12
					C381.7,188.8,382.1,188.4,382.7,188.4z"/>
				<path class="st3" d="M382.7,175.9L382.7,175.9c0.6,0,1,0.4,1,1l0,0c0,0.6-0.4,1-1,1l0,0c-0.6,0-1-0.4-1-1l0,0
					C381.7,176.3,382.1,175.9,382.7,175.9z"/>
				<path class="st3" d="M299,209.7h1c0.6,0,1,0.4,1,1l0,0c0,0.6-0.4,1-1,1h-1l0,0V209.7L299,209.7z"/>
			</g>
			<g>
				<path class="st3" d="M299,215.2v-79.6c0-2.6,2.1-4.7,4.7-4.7h39.6c2.6,0,4.7,2.1,4.7,4.7v79.6c0,2.6-2.1,4.7-4.7,4.7h-39.6
					C301.1,219.9,299,217.8,299,215.2z"/>
				<rect x="304" y="140.9" class="st3" width="39" height="69"/>
				<path class="st3" d="M316.5,136.2L316.5,136.2c0-0.6,0.4-1,1-1h12c0.6,0,1,0.4,1,1l0,0c0,0.6-0.4,1-1,1h-12
					C316.9,137.2,316.5,136.8,316.5,136.2z"/>
				<path class="st3" d="M304,136.2L304,136.2c0-0.6,0.4-1,1-1l0,0c0.6,0,1,0.4,1,1l0,0c0,0.6-0.4,1-1,1l0,0
					C304.4,137.2,304,136.8,304,136.2z"/>
				<path class="st3" d="M337.8,219.9v-1c0-0.6,0.4-1,1-1l0,0c0.6,0,1,0.4,1,1v1l0,0H337.8L337.8,219.9z"/>
			</g>
		</g>
		<g>
			<path class="st4" d="M387,166c-3-14.5-13.2-26.6-27-32"/>
			<path class="st5" d="M368.1,132c0.1,0.3-0.1,0.5-0.4,0.6c0,0,0,0,0,0l-7.5,1.5l4.5,6.2c0.2,0.2,0.1,0.5-0.1,0.7
				c-0.2,0.2-0.5,0.1-0.7-0.1l0,0l-5-6.8c-0.2-0.2-0.1-0.5,0.1-0.7c0.1,0,0.1-0.1,0.2-0.1l8.3-1.6C367.8,131.6,368,131.7,368.1,132
				C368.1,132,368.1,132,368.1,132L368.1,132z"/>
		</g>
		<g id="Layer_2">
			
				<linearGradient id="SVGID_1_" gradientUnits="userSpaceOnUse" x1="229.7851" y1="286.7709" x2="409.2993" y2="283.8232" gradientTransform="matrix(1 0 0 -1 0 376)">
				<stop  offset="0" style="stop-color:#488DFB"/>
				<stop  offset="1" style="stop-color:#FF5252"/>
			</linearGradient>
			<path class="st6" d="M238,90.8l3-9.7h3.9l2.9,9.7l3.3-9.7h4L249.3,98h-2.8l-3.7-11.8L239.3,98h-2.8L230.6,81h4L238,90.8z"/>
			
				<linearGradient id="SVGID_2_" gradientUnits="userSpaceOnUse" x1="229.794" y1="287.2306" x2="409.3082" y2="284.283" gradientTransform="matrix(1 0 0 -1 0 376)">
				<stop  offset="0" style="stop-color:#488DFB"/>
				<stop  offset="1" style="stop-color:#FF5252"/>
			</linearGradient>
			<path class="st7" d="M273.3,95.6c-1.6,1.7-3.9,2.6-6.2,2.5c-2.3,0.1-4.6-0.9-6.2-2.5c-1.7-1.6-2.6-3.9-2.5-6.2
				c-0.1-2.3,0.9-4.6,2.5-6.2c1.6-1.7,3.9-2.6,6.2-2.5c2.3-0.1,4.6,0.9,6.2,2.5c1.7,1.6,2.6,3.9,2.5,6.2
				C275.9,91.7,275,94,273.3,95.6z M272.1,89.4c0-1.4-0.5-2.8-1.4-3.9c-1.7-1.9-4.7-2.1-6.6-0.4c-0.2,0.1-0.3,0.3-0.4,0.4
				c-1,1.1-1.5,2.4-1.4,3.9c0,1.4,0.5,2.8,1.4,3.9c1.7,1.9,4.7,2.1,6.7,0.4c0.1-0.1,0.3-0.3,0.4-0.4
				C271.6,92.2,272.1,90.8,272.1,89.4z"/>
			
				<linearGradient id="SVGID_3_" gradientUnits="userSpaceOnUse" x1="229.7969" y1="287.4088" x2="409.3111" y2="284.4612" gradientTransform="matrix(1 0 0 -1 0 376)">
				<stop  offset="0" style="stop-color:#488DFB"/>
				<stop  offset="1" style="stop-color:#FF5252"/>
			</linearGradient>
			<path class="st8" d="M295,86.6c0,2.7-1.1,4.5-3.2,5.3L296,98h-4.6l-3.7-5.4h-2.6V98h-3.7V81h6.3c2.6,0,4.5,0.4,5.6,1.3
				S295,84.7,295,86.6z M290.5,88.7c0.5-0.4,0.7-1.1,0.7-2c0-0.9-0.2-1.5-0.7-1.9c-0.5-0.3-1.3-0.5-2.5-0.5h-2.8v5h2.7
				C289.2,89.3,290,89.1,290.5,88.7z"/>
			
				<linearGradient id="SVGID_4_" gradientUnits="userSpaceOnUse" x1="229.7999" y1="287.7106" x2="409.3141" y2="284.7629" gradientTransform="matrix(1 0 0 -1 0 376)">
				<stop  offset="0" style="stop-color:#488DFB"/>
				<stop  offset="1" style="stop-color:#FF5252"/>
			</linearGradient>
			<path class="st9" d="M301.2,98V81h3.7v13.6h7.1V98H301.2z"/>
			
				<linearGradient id="SVGID_5_" gradientUnits="userSpaceOnUse" x1="229.8058" y1="287.9919" x2="409.32" y2="285.0443" gradientTransform="matrix(1 0 0 -1 0 376)">
				<stop  offset="0" style="stop-color:#488DFB"/>
				<stop  offset="1" style="stop-color:#FF5252"/>
			</linearGradient>
			<path class="st10" d="M330,83.2c1.6,1.5,2.4,3.5,2.4,6.2s-0.8,4.7-2.3,6.3c-1.6,1.5-3.9,2.3-7.1,2.3h-5.7V81h5.9
				C326.1,81,328.4,81.8,330,83.2z M327.2,93.3c0.9-0.9,1.4-2.1,1.4-3.8c0-1.7-0.5-2.9-1.4-3.8c-0.9-0.9-2.3-1.4-4.2-1.4h-2.1v10.3
				h2.4C325,94.6,326.3,94.2,327.2,93.3z"/>
			
				<linearGradient id="SVGID_6_" gradientUnits="userSpaceOnUse" x1="229.8147" y1="288.4806" x2="409.3289" y2="285.533" gradientTransform="matrix(1 0 0 -1 0 376)">
				<stop  offset="0" style="stop-color:#488DFB"/>
				<stop  offset="1" style="stop-color:#FF5252"/>
			</linearGradient>
			<path class="st11" d="M358.2,82.5c1.2,1,1.8,2.6,1.8,4.7s-0.6,3.6-1.8,4.6s-3,1.5-5.5,1.5h-2.2V98h-3.7V81h5.9
				C355.1,81,357,81.5,358.2,82.5z M355.5,89.2c0.4-0.5,0.7-1.3,0.7-2.2c0-1-0.3-1.7-0.9-2.1c-0.6-0.4-1.5-0.6-2.7-0.6h-2.1V90h2.5
				C354.2,90,355,89.7,355.5,89.2z"/>
			
				<linearGradient id="SVGID_7_" gradientUnits="userSpaceOnUse" x1="229.8205" y1="288.9706" x2="409.3347" y2="286.0229" gradientTransform="matrix(1 0 0 -1 0 376)">
				<stop  offset="0" style="stop-color:#488DFB"/>
				<stop  offset="1" style="stop-color:#FF5252"/>
			</linearGradient>
			<path class="st12" d="M379.3,95.6c-3.5,3.3-9,3.3-12.5,0c-1.7-1.6-2.6-3.9-2.5-6.2c-0.1-2.3,0.9-4.6,2.5-6.2
				c3.5-3.3,9-3.3,12.5,0c1.7,1.6,2.6,3.9,2.5,6.2C381.9,91.7,381,94,379.3,95.6z M378.1,89.4c0-1.4-0.5-2.8-1.4-3.9
				c-1.7-1.9-4.7-2.1-6.6-0.4c-0.2,0.1-0.3,0.3-0.4,0.4c-1,1.1-1.5,2.4-1.4,3.9c0,1.4,0.5,2.8,1.4,3.9c1.7,1.9,4.7,2.1,6.7,0.4
				c0.1-0.1,0.3-0.3,0.4-0.4C377.6,92.2,378.1,90.8,378.1,89.4L378.1,89.4z"/>
			
				<linearGradient id="SVGID_8_" gradientUnits="userSpaceOnUse" x1="229.8264" y1="289.2122" x2="409.3406" y2="286.2645" gradientTransform="matrix(1 0 0 -1 0 376)">
				<stop  offset="0" style="stop-color:#488DFB"/>
				<stop  offset="1" style="stop-color:#FF5252"/>
			</linearGradient>
			<path class="st13" d="M394,84.3V98h-3.7V84.3h-4.7V81h13.2v3.3H394z"/>
			
				<linearGradient id="SVGID_9_" gradientUnits="userSpaceOnUse" x1="229.8293" y1="289.4522" x2="409.3435" y2="286.5045" gradientTransform="matrix(1 0 0 -1 0 376)">
				<stop  offset="0" style="stop-color:#488DFB"/>
				<stop  offset="1" style="stop-color:#FF5252"/>
			</linearGradient>
			<path class="st14" d="M408.3,93.6c0.6,0.8,1.5,1.2,2.5,1.2c1,0,1.9-0.4,2.5-1.2c0.6-0.8,0.9-1.9,0.9-3.2V81h3.7v9.5
				c0,2.5-0.7,4.3-2,5.7c-1.3,1.3-3.1,2-5.1,2c-2.1,0-3.8-0.7-5.2-2c-1.3-1.3-2-3.2-2-5.6V81h3.7v9.4
				C407.4,91.7,407.7,92.8,408.3,93.6z"/>
			
				<linearGradient id="SVGID_10_" gradientUnits="userSpaceOnUse" x1="229.8354" y1="289.9011" x2="409.3496" y2="286.9534" gradientTransform="matrix(1 0 0 -1 0 376)">
				<stop  offset="0" style="stop-color:#488DFB"/>
				<stop  offset="1" style="stop-color:#FF5252"/>
			</linearGradient>
			<path class="st15" d="M428.2,84.4c-0.4,0.3-0.6,0.7-0.5,1.2c0,0.5,0.2,0.9,0.7,1.2c0.4,0.3,1.5,0.6,3,1s2.8,1,3.7,1.8
				c0.9,0.8,1.3,1.9,1.3,3.5c0,1.4-0.6,2.8-1.7,3.7c-1.1,0.9-2.6,1.4-4.4,1.4c-2.6,0-5-1-7.2-3l2.2-2.7c1.8,1.6,3.5,2.4,5,2.4
				c0.6,0,1.1-0.1,1.6-0.4c0.4-0.3,0.6-0.7,0.6-1.2c0-0.5-0.2-0.9-0.6-1.2c-0.4-0.3-1.2-0.6-2.5-0.9c-1.9-0.5-3.4-1.1-4.3-1.8
				c-0.9-0.8-1.4-1.9-1.4-3.5c0-1.6,0.6-2.8,1.7-3.7s2.6-1.3,4.3-1.3c1.1,0,2.3,0.2,3.3,0.6c1.1,0.4,2.1,0.9,2.9,1.6l-1.9,2.8
				c-1.5-1.1-3-1.7-4.5-1.7C429.1,83.9,428.6,84.1,428.2,84.4z"/>
		</g>
	</g>
</g>
</svg>
