<svg xmlns="http://www.w3.org/2000/svg" xmlns:xlink="http://www.w3.org/1999/xlink" viewBox="0 0 697.78 59.47">
  <defs>
    <style>
      .cls-1 {
        fill: url("#linear-gradient");
      }
      .cls-2 {
        fill: url("#linear-gradient-2");
      }
      .cls-3 {
        fill: url("#linear-gradient-3");
      }
      .cls-4 {
        fill: url("#linear-gradient-4");
      }
      .cls-5 {
        fill: url("#linear-gradient-5");
      }
      .cls-6 {
        fill: url("#linear-gradient-6");
      }
      .cls-7 {
        fill: url("#linear-gradient-7");
      }
      .cls-8 {
        fill: url("#linear-gradient-8");
      }
      .cls-9 {
        fill: url("#linear-gradient-9");
      }
      .cls-10 {
        fill: url("#linear-gradient-10");
      }
    </style>
    <linearGradient id="linear-gradient" x1="-2.89" y1="29.17" x2="606.11" y2="39.17" gradientUnits="userSpaceOnUse"><stop offset="0" stop-color="#488DFB"/><stop offset="1" stop-color="#ff5252"/></linearGradient><linearGradient id="linear-gradient-2" x1="-2.86" y1="27.61" x2="606.14" y2="37.61" xlink:href="#linear-gradient"/><linearGradient id="linear-gradient-3" x1="-2.85" y1="27" x2="606.15" y2="37" xlink:href="#linear-gradient"/><linearGradient id="linear-gradient-4" x1="-2.84" y1="25.98" x2="606.16" y2="35.98" xlink:href="#linear-gradient"/><linearGradient id="linear-gradient-5" x1="-2.82" y1="25.03" x2="606.18" y2="35.03" xlink:href="#linear-gradient"/><linearGradient id="linear-gradient-6" x1="-2.79" y1="23.38" x2="606.21" y2="33.38" xlink:href="#linear-gradient"/><linearGradient id="linear-gradient-7" x1="-2.77" y1="21.71" x2="606.23" y2="31.71" xlink:href="#linear-gradient"/><linearGradient id="linear-gradient-8" x1="-2.75" y1="20.89" x2="606.25" y2="30.89" xlink:href="#linear-gradient"/><linearGradient id="linear-gradient-9" x1="-2.74" y1="20.07" x2="606.26" y2="30.07" xlink:href="#linear-gradient"/><linearGradient id="linear-gradient-10" x1="-2.72" y1="18.58" x2="606.28" y2="28.58" xlink:href="#linear-gradient"/></defs>
  <title>Artboard 7</title>
  <g id="Layer_2" data-name="Layer 2"><path class="cls-1" d="M24.91,34.38,35,1.32H48.2l10,33.06L69.46,1.32H83.18L63.38,58.81H54l-12.42-40-12.33,40H19.8L0,1.32H13.71Z"/><path
    class="cls-2"
    d="M144.85,50.87a28.94,28.94,0,0,1-21.18,8.51,28.94,28.94,0,0,1-21.18-8.51,28.6,28.6,0,0,1-8.6-21.18,28.6,28.6,0,0,1,8.6-21.18A28.94,28.94,0,0,1,123.67,0a28.94,28.94,0,0,1,21.18,8.51,28.6,28.6,0,0,1,8.6,21.18A28.6,28.6,0,0,1,144.85,50.87Zm-4.3-21.14a19,19,0,0,0-4.87-13.12,15.91,15.91,0,0,0-23.94,0,19,19,0,0,0-4.87,13.12,18.81,18.81,0,0,0,4.87,13.08,16,16,0,0,0,23.94,0A18.81,18.81,0,0,0,140.55,29.73Z"/><path class="cls-3" d="M218.29,20.4q0,13.82-10.79,17.85l14.36,20.56H206.28L193.7,40.47h-8.76V58.81H172.28V1.32h21.5q13.23,0,18.87,4.52T218.29,20.4ZM203,27.22q2.35-2.14,2.35-6.79T203,14.06q-2.43-1.73-8.52-1.73h-9.49v17h9.25Q200.68,29.36,203,27.22Z"/><path class="cls-4" d="M239.38,58.81V1.32H252V47.38h24.18V58.81Z"/><path class="cls-5" d="M336.92,8.84Q345,16.37,345,29.77T337.13,51q-7.91,7.82-24.14,7.81H293.59V1.32h20Q328.81,1.32,336.92,8.84ZM327.63,43q4.67-4.44,4.67-12.91t-4.67-13Q323,12.5,313.31,12.5h-7.06v35h8Q323,47.46,327.63,43Z"/><path class="cls-6" d="M432.72,6.46q6,5.14,6,15.79t-6.13,15.59q-6.13,4.94-18.7,4.94H406.3v16H393.65V1.32h20Q426.75,1.32,432.72,6.46Zm-9.29,22.62q2.27-2.59,2.27-7.57t-3-7.07q-3-2.1-9.21-2.1H406.3V31.67h8.52Q421.15,31.67,423.43,29.08Z"/><path
    class="cls-7"
    d="M504.41,50.87a30.6,30.6,0,0,1-42.36,0,28.6,28.6,0,0,1-8.6-21.18,28.6,28.6,0,0,1,8.6-21.18,30.6,30.6,0,0,1,42.36,0A28.6,28.6,0,0,1,513,29.69,28.6,28.6,0,0,1,504.41,50.87Zm-4.3-21.14a19,19,0,0,0-4.87-13.12,15.91,15.91,0,0,0-23.94,0,19,19,0,0,0-4.87,13.12,18.81,18.81,0,0,0,4.87,13.08,16,16,0,0,0,23.94,0A18.81,18.81,0,0,0,500.11,29.73Z"/><path class="cls-8" d="M554.32,12.42V58.81H541.66V12.42H525.59V1.32h44.79v11.1Z"/><path class="cls-9" d="M602.76,44a10.31,10.31,0,0,0,8.52,4,10.2,10.2,0,0,0,8.48-4q3.12-4,3.13-10.9V1.32h12.66V33.48q0,12.5-6.82,19.21t-17.45,6.7q-10.63,0-17.49-6.74t-6.86-19.16V1.32H599.6V33.06Q599.6,40,602.76,44Z"/><path
    class="cls-10"
    d="M670.07,12.79a5,5,0,0,0-1.83,4,4.56,4.56,0,0,0,2.23,4q2.23,1.48,10.31,3.5t12.54,6q4.46,4,4.46,11.76a15.61,15.61,0,0,1-5.72,12.54q-5.72,4.81-15.05,4.81-13.47,0-24.26-10.12L660.29,40q9.17,8.14,17,8.14a8.81,8.81,0,0,0,5.48-1.52,4.91,4.91,0,0,0,2-4.11,4.82,4.82,0,0,0-2.11-4.11q-2.11-1.52-8.36-3.08-9.9-2.38-14.49-6.21t-4.58-12q0-8.18,5.8-12.63T675.47,0a34.42,34.42,0,0,1,11.36,2,30.35,30.35,0,0,1,9.9,5.59l-6.41,9.38q-7.39-5.68-15.26-5.68A7.57,7.57,0,0,0,670.07,12.79Z"/></g>
</svg>
