<?xml version="1.0" encoding="utf-8"?>
<!-- Generator: Adobe Illustrator 20.1.0, SVG Export Plug-In . SVG Version: 6.00 Build 0)  -->
<svg version="1.1" id="Layer_1" xmlns="http://www.w3.org/2000/svg" xmlns:xlink="http://www.w3.org/1999/xlink" x="0px" y="0px"
	 viewBox="0 0 198 18" style="enable-background:new 0 0 198 18;" xml:space="preserve">
<style type="text/css">
	.st0{fill:url(#SVGID_1_);}
	.st1{fill:url(#SVGID_2_);}
	.st2{fill:url(#SVGID_3_);}
	.st3{fill:url(#SVGID_4_);}
	.st4{fill:url(#SVGID_5_);}
	.st5{fill:url(#SVGID_6_);}
	.st6{fill:url(#SVGID_7_);}
	.st7{fill:url(#SVGID_8_);}
	.st8{fill:url(#SVGID_9_);}
	.st9{fill:url(#SVGID_10_);}
</style>
<g>
	<linearGradient id="SVGID_1_" gradientUnits="userSpaceOnUse" x1="224.2862" y1="-0.4049" x2="44.2862" y2="7.5951">
		<stop  offset="0" style="stop-color:#3AFF8B"/>
		<stop  offset="1" style="stop-color:#FFEB3B"/>
	</linearGradient>
	<path class="st0" d="M8.1,12.8l3.7-12.1h2.5l3.7,12.1l4.2-12.1h3l-5.9,16.8h-2.8L13.3,6h-0.2L9.5,17.5H6.7L0.9,0.7h3L8.1,12.8z"/>
	<linearGradient id="SVGID_2_" gradientUnits="userSpaceOnUse" x1="224.3334" y1="0.6558" x2="44.3334" y2="8.6558">
		<stop  offset="0" style="stop-color:#3AFF8B"/>
		<stop  offset="1" style="stop-color:#FFEB3B"/>
	</linearGradient>
	<path class="st1" d="M43.1,15.2c-1.7,1.7-3.8,2.5-6.3,2.5s-4.6-0.8-6.3-2.5C28.9,13.5,28,11.5,28,9c0-2.5,0.8-4.5,2.5-6.2
		c1.7-1.7,3.8-2.5,6.3-2.5s4.6,0.8,6.3,2.5c1.7,1.7,2.5,3.7,2.5,6.2C45.7,11.5,44.8,13.5,43.1,15.2z M41.1,4.7
		c-1.1-1.2-2.5-1.8-4.2-1.8s-3.1,0.6-4.2,1.8c-1.1,1.2-1.7,2.6-1.7,4.3c0,1.7,0.6,3.1,1.7,4.3c1.1,1.2,2.5,1.8,4.2,1.8
		s3.1-0.6,4.2-1.8c1.1-1.2,1.7-2.6,1.7-4.3C42.8,7.3,42.2,5.9,41.1,4.7z"/>
	<linearGradient id="SVGID_3_" gradientUnits="userSpaceOnUse" x1="224.3795" y1="1.6933" x2="44.3795" y2="9.6933">
		<stop  offset="0" style="stop-color:#3AFF8B"/>
		<stop  offset="1" style="stop-color:#FFEB3B"/>
	</linearGradient>
	<path class="st2" d="M63.9,6.2c0,2.8-1.2,4.5-3.6,5.2l4.4,6.1H61l-4-5.6h-3.7v5.6h-2.8V0.7h6.2c2.6,0,4.4,0.4,5.5,1.3
		C63.3,2.9,63.9,4.3,63.9,6.2z M60.1,8.5c0.6-0.5,0.9-1.3,0.9-2.4s-0.3-1.8-0.9-2.3c-0.6-0.4-1.6-0.6-3.2-0.6h-3.6v6h3.5
		C58.4,9.3,59.5,9,60.1,8.5z"/>
	<linearGradient id="SVGID_4_" gradientUnits="userSpaceOnUse" x1="224.4127" y1="2.4401" x2="44.4127" y2="10.4401">
		<stop  offset="0" style="stop-color:#3AFF8B"/>
		<stop  offset="1" style="stop-color:#FFEB3B"/>
	</linearGradient>
	<path class="st3" d="M69.1,17.5V0.7H72v14.1h7.7v2.7H69.1z"/>
	<linearGradient id="SVGID_5_" gradientUnits="userSpaceOnUse" x1="224.4374" y1="2.9965" x2="44.4374" y2="10.9965">
		<stop  offset="0" style="stop-color:#3AFF8B"/>
		<stop  offset="1" style="stop-color:#FFEB3B"/>
	</linearGradient>
	<path class="st4" d="M96.6,2.9C98.2,4.4,99,6.4,99,9c0,2.6-0.8,4.7-2.4,6.2c-1.6,1.5-4,2.3-7.2,2.3h-5.6V0.7h5.8
		C92.7,0.7,95,1.5,96.6,2.9z M96.2,9.1c0-3.8-2.2-5.8-6.6-5.8h-2.8v11.5h3.1c2,0,3.6-0.5,4.7-1.5S96.2,11,96.2,9.1z"/>
	<linearGradient id="SVGID_6_" gradientUnits="userSpaceOnUse" x1="224.489" y1="4.1567" x2="44.489" y2="12.1567">
		<stop  offset="0" style="stop-color:#3AFF8B"/>
		<stop  offset="1" style="stop-color:#FFEB3B"/>
	</linearGradient>
	<path class="st5" d="M123,2.2c1.2,1,1.8,2.5,1.8,4.5c0,2-0.6,3.5-1.8,4.5c-1.2,0.9-3,1.4-5.5,1.4h-3v4.9h-2.8V0.7h5.8
		C120,0.7,121.8,1.2,123,2.2z M121,9.1c0.6-0.6,0.9-1.5,0.9-2.6s-0.4-2-1.1-2.5c-0.7-0.5-1.8-0.7-3.4-0.7h-2.9V10h3.3
		C119.3,10,120.4,9.7,121,9.1z"/>
	<linearGradient id="SVGID_7_" gradientUnits="userSpaceOnUse" x1="224.5309" y1="5.0993" x2="44.5309" y2="13.0993">
		<stop  offset="0" style="stop-color:#3AFF8B"/>
		<stop  offset="1" style="stop-color:#FFEB3B"/>
	</linearGradient>
	<path class="st6" d="M143.3,15.2c-1.7,1.7-3.8,2.5-6.3,2.5s-4.6-0.8-6.3-2.5c-1.7-1.7-2.5-3.7-2.5-6.2c0-2.5,0.8-4.5,2.5-6.2
		c1.7-1.7,3.8-2.5,6.3-2.5s4.6,0.8,6.3,2.5c1.7,1.7,2.5,3.7,2.5,6.2C145.9,11.5,145,13.5,143.3,15.2z M141.2,4.7
		c-1.1-1.2-2.5-1.8-4.2-1.8s-3.1,0.6-4.2,1.8c-1.1,1.2-1.7,2.6-1.7,4.3c0,1.7,0.6,3.1,1.7,4.3c1.1,1.2,2.5,1.8,4.2,1.8
		s3.1-0.6,4.2-1.8c1.1-1.2,1.7-2.6,1.7-4.3C143,7.3,142.4,5.9,141.2,4.7z"/>
	<linearGradient id="SVGID_8_" gradientUnits="userSpaceOnUse" x1="224.5668" y1="5.9079" x2="44.5668" y2="13.9079">
		<stop  offset="0" style="stop-color:#3AFF8B"/>
		<stop  offset="1" style="stop-color:#FFEB3B"/>
	</linearGradient>
	<path class="st7" d="M156.5,3.3v14.2h-2.8V3.3h-5.1V0.7h13v2.6H156.5z"/>
	<linearGradient id="SVGID_9_" gradientUnits="userSpaceOnUse" x1="224.6036" y1="6.7353" x2="44.6036" y2="14.7353">
		<stop  offset="0" style="stop-color:#3AFF8B"/>
		<stop  offset="1" style="stop-color:#FFEB3B"/>
	</linearGradient>
	<path class="st8" d="M169.6,13.7c0.8,0.9,1.8,1.3,3.1,1.3s2.4-0.4,3.1-1.3c0.8-0.9,1.2-2.1,1.2-3.6V0.7h2.8v9.4
		c0,2.4-0.7,4.3-2,5.6s-3,2-5.1,2s-3.8-0.7-5.1-2s-2-3.2-2-5.6V0.7h2.8V10C168.5,11.5,168.9,12.8,169.6,13.7z"/>
	<linearGradient id="SVGID_10_" gradientUnits="userSpaceOnUse" x1="224.6376" y1="7.5012" x2="44.6376" y2="15.5012">
		<stop  offset="0" style="stop-color:#3AFF8B"/>
		<stop  offset="1" style="stop-color:#FFEB3B"/>
	</linearGradient>
	<path class="st9" d="M190.6,2.9c-0.8,0-1.5,0.2-2,0.5s-0.8,0.8-0.8,1.5s0.3,1.2,0.8,1.6c0.5,0.4,1.7,0.7,3.4,1.2s3,1,3.9,1.8
		c0.9,0.8,1.3,1.9,1.3,3.3s-0.6,2.7-1.7,3.6c-1.1,0.9-2.6,1.4-4.3,1.4c-2.6,0-5-0.9-7-2.7l1.8-2.1c1.7,1.5,3.5,2.2,5.3,2.2
		c0.9,0,1.6-0.2,2.2-0.6c0.5-0.4,0.8-0.9,0.8-1.6c0-0.6-0.3-1.2-0.8-1.5c-0.5-0.4-1.4-0.7-2.6-1s-2.2-0.6-2.8-0.8
		c-0.6-0.2-1.2-0.6-1.7-1c-1-0.8-1.5-1.9-1.5-3.5s0.6-2.7,1.7-3.6c1.1-0.8,2.5-1.3,4.2-1.3c1.1,0,2.1,0.2,3.2,0.5
		c1.1,0.4,2,0.8,2.7,1.5l-1.5,2.1c-0.5-0.4-1.2-0.8-2-1.1C192.2,3.1,191.4,2.9,190.6,2.9z"/>
</g>
</svg>
