<?xml version="1.0" encoding="utf-8"?>
<!-- Generator: Adobe Illustrator 20.1.0, SVG Export Plug-In . SVG Version: 6.00 Build 0)  -->
<svg version="1.1" id="Layer_1" xmlns="http://www.w3.org/2000/svg" xmlns:xlink="http://www.w3.org/1999/xlink" x="0px" y="0px"
	 viewBox="0 0 375 375" style="enable-background:new 0 0 375 375;" xml:space="preserve">
<style type="text/css">
	.st0{fill:#112340;}
	.st1{fill:url(#SVGID_1_);}
	.st2{fill:url(#SVGID_2_);}
	.st3{fill:url(#SVGID_3_);}
	.st4{fill:url(#SVGID_4_);}
	.st5{fill:url(#SVGID_5_);}
	.st6{fill:url(#SVGID_6_);}
	.st7{fill:url(#SVGID_7_);}
	.st8{fill:url(#SVGID_8_);}
	.st9{fill:url(#SVGID_9_);}
	.st10{fill:url(#SVGID_10_);}
	.st11{fill:#FFEB3B;}
	.st12{fill:#FFFFFF;}
</style>
<title>160816-mobile_helpers</title>
<g id="tutorial">
	<rect class="st0" width="375" height="375"/>
	<g>
		<g id="Layer_2">
			
				<linearGradient id="SVGID_1_" gradientUnits="userSpaceOnUse" x1="83.7847" y1="54.5878" x2="263.2989" y2="57.5356" gradientTransform="matrix(1 0 0 1 0 34)">
				<stop  offset="0" style="stop-color:#488DFB"/>
				<stop  offset="1" style="stop-color:#FF5252"/>
			</linearGradient>
			<path class="st1" d="M92,90.1l3-9.7h3.9l2.9,9.7l3.3-9.7h4l-5.8,16.9h-2.8l-3.7-11.8l-3.6,11.8h-2.8l-5.8-16.9h4L92,90.1z"/>
			
				<linearGradient id="SVGID_2_" gradientUnits="userSpaceOnUse" x1="83.7927" y1="54.1874" x2="263.3069" y2="57.1351" gradientTransform="matrix(1 0 0 1 0 34)">
				<stop  offset="0" style="stop-color:#488DFB"/>
				<stop  offset="1" style="stop-color:#FF5252"/>
			</linearGradient>
			<path class="st2" d="M127.3,95c-1.6,1.7-3.9,2.6-6.2,2.5c-2.3,0.1-4.6-0.9-6.2-2.5c-1.7-1.6-2.6-3.9-2.5-6.2
				c-0.1-2.3,0.9-4.6,2.5-6.2c1.6-1.7,3.9-2.6,6.2-2.5c2.3-0.1,4.6,0.9,6.2,2.5c1.7,1.6,2.6,3.9,2.5,6.2
				C129.9,91.1,129,93.3,127.3,95z M126.1,88.7c0-1.4-0.5-2.8-1.4-3.9c-1.7-1.9-4.7-2.1-6.6-0.4c-0.2,0.1-0.3,0.3-0.4,0.4
				c-1,1.1-1.5,2.4-1.4,3.9c0,1.4,0.5,2.8,1.4,3.9c1.7,1.9,4.7,2.1,6.7,0.4c0.1-0.1,0.3-0.3,0.4-0.4
				C125.6,91.5,126.1,90.2,126.1,88.7z"/>
			
				<linearGradient id="SVGID_3_" gradientUnits="userSpaceOnUse" x1="83.7957" y1="53.9993" x2="263.3099" y2="56.947" gradientTransform="matrix(1 0 0 1 0 34)">
				<stop  offset="0" style="stop-color:#488DFB"/>
				<stop  offset="1" style="stop-color:#FF5252"/>
			</linearGradient>
			<path class="st3" d="M149,86c0,2.7-1.1,4.5-3.2,5.3l4.2,6.1h-4.6l-3.7-5.4h-2.6v5.4h-3.7v-17h6.3c2.6,0,4.5,0.4,5.6,1.3
				S149,84,149,86z M144.5,88c0.5-0.4,0.7-1.1,0.7-2s-0.2-1.5-0.7-1.9c-0.5-0.3-1.3-0.5-2.5-0.5h-2.8v5h2.7
				C143.2,88.6,144,88.4,144.5,88z"/>
			
				<linearGradient id="SVGID_4_" gradientUnits="userSpaceOnUse" x1="83.7995" y1="53.6472" x2="263.3137" y2="56.5949" gradientTransform="matrix(1 0 0 1 0 34)">
				<stop  offset="0" style="stop-color:#488DFB"/>
				<stop  offset="1" style="stop-color:#FF5252"/>
			</linearGradient>
			<path class="st4" d="M155.2,97.3V80.4h3.7V94h7.1v3.4L155.2,97.3L155.2,97.3z"/>
			
				<linearGradient id="SVGID_5_" gradientUnits="userSpaceOnUse" x1="83.8047" y1="53.4136" x2="263.3189" y2="56.3614" gradientTransform="matrix(1 0 0 1 0 34)">
				<stop  offset="0" style="stop-color:#488DFB"/>
				<stop  offset="1" style="stop-color:#FF5252"/>
			</linearGradient>
			<path class="st5" d="M184,82.6c1.6,1.5,2.4,3.5,2.4,6.2c0,2.6-0.8,4.7-2.3,6.3c-1.6,1.5-3.9,2.3-7.1,2.3h-5.7v-17h5.9
				C180.1,80.4,182.4,81.1,184,82.6z M181.2,92.6c0.9-0.9,1.4-2.1,1.4-3.8c0-1.7-0.5-2.9-1.4-3.8s-2.3-1.4-4.2-1.4h-2.1V94h2.4
				C179,94,180.3,93.5,181.2,92.6z"/>
			
				<linearGradient id="SVGID_6_" gradientUnits="userSpaceOnUse" x1="83.8135" y1="52.9294" x2="263.3277" y2="55.8771" gradientTransform="matrix(1 0 0 1 0 34)">
				<stop  offset="0" style="stop-color:#488DFB"/>
				<stop  offset="1" style="stop-color:#FF5252"/>
			</linearGradient>
			<path class="st6" d="M212.2,81.9c1.2,1,1.8,2.6,1.8,4.7s-0.6,3.6-1.8,4.6s-3,1.5-5.5,1.5h-2.2v4.7h-3.7v-17h5.9
				C209.1,80.4,211,80.9,212.2,81.9z M209.5,88.5c0.4-0.5,0.7-1.3,0.7-2.2c0-1-0.3-1.7-0.9-2.1s-1.5-0.6-2.7-0.6h-2.1v5.7h2.5
				C208.2,89.3,209,89,209.5,88.5z"/>
			
				<linearGradient id="SVGID_7_" gradientUnits="userSpaceOnUse" x1="83.8191" y1="52.4481" x2="263.3333" y2="55.3958" gradientTransform="matrix(1 0 0 1 0 34)">
				<stop  offset="0" style="stop-color:#488DFB"/>
				<stop  offset="1" style="stop-color:#FF5252"/>
			</linearGradient>
			<path class="st7" d="M233.3,95c-3.5,3.3-9,3.3-12.5,0c-1.7-1.6-2.6-3.9-2.5-6.2c-0.1-2.3,0.9-4.6,2.5-6.2c3.5-3.3,9-3.3,12.5,0
				c1.7,1.6,2.6,3.9,2.5,6.2C235.9,91.1,235,93.3,233.3,95z M232.1,88.7c0-1.4-0.5-2.8-1.4-3.9c-1.7-1.9-4.7-2.1-6.6-0.4
				c-0.2,0.1-0.3,0.3-0.4,0.4c-1,1.1-1.5,2.4-1.4,3.9c0,1.4,0.5,2.8,1.4,3.9c1.7,1.9,4.7,2.1,6.7,0.4c0.1-0.1,0.3-0.3,0.4-0.4
				C231.6,91.5,232.1,90.2,232.1,88.7L232.1,88.7z"/>
			
				<linearGradient id="SVGID_8_" gradientUnits="userSpaceOnUse" x1="83.8269" y1="52.0953" x2="263.3411" y2="55.0429" gradientTransform="matrix(1 0 0 1 0 34)">
				<stop  offset="0" style="stop-color:#488DFB"/>
				<stop  offset="1" style="stop-color:#FF5252"/>
			</linearGradient>
			<path class="st8" d="M248,83.6v13.7h-3.7V83.6h-4.7v-3.3h13.2v3.3H248z"/>
			
				<linearGradient id="SVGID_9_" gradientUnits="userSpaceOnUse" x1="83.8295" y1="51.8708" x2="263.3437" y2="54.8184" gradientTransform="matrix(1 0 0 1 0 34)">
				<stop  offset="0" style="stop-color:#488DFB"/>
				<stop  offset="1" style="stop-color:#FF5252"/>
			</linearGradient>
			<path class="st9" d="M262.3,92.9c0.6,0.8,1.5,1.2,2.5,1.2s1.9-0.4,2.5-1.2c0.6-0.8,0.9-1.9,0.9-3.2v-9.4h3.7v9.5
				c0,2.5-0.7,4.3-2,5.7c-1.3,1.3-3.1,2-5.1,2c-2.1,0-3.8-0.7-5.2-2c-1.3-1.3-2-3.2-2-5.6v-9.5h3.7v9.4
				C261.4,91.1,261.7,92.1,262.3,92.9z"/>
			
				<linearGradient id="SVGID_10_" gradientUnits="userSpaceOnUse" x1="83.8333" y1="51.5632" x2="263.3475" y2="54.5109" gradientTransform="matrix(1 0 0 1 0 34)">
				<stop  offset="0" style="stop-color:#488DFB"/>
				<stop  offset="1" style="stop-color:#FF5252"/>
			</linearGradient>
			<path class="st10" d="M282.2,83.7c-0.4,0.3-0.6,0.7-0.5,1.2c0,0.5,0.2,0.9,0.7,1.2c0.4,0.3,1.5,0.6,3,1c1.6,0.4,2.8,1,3.7,1.8
				c0.9,0.8,1.3,1.9,1.3,3.5c0,1.4-0.6,2.8-1.7,3.7c-1.1,0.9-2.6,1.4-4.4,1.4c-2.6,0-5-1-7.2-3l2.2-2.7c1.8,1.6,3.5,2.4,5,2.4
				c0.6,0,1.1-0.1,1.6-0.4c0.4-0.3,0.6-0.7,0.6-1.2s-0.2-0.9-0.6-1.2c-0.4-0.3-1.2-0.6-2.5-0.9c-1.9-0.5-3.4-1.1-4.3-1.8
				c-0.9-0.8-1.4-1.9-1.4-3.5s0.6-2.8,1.7-3.7s2.6-1.3,4.3-1.3c1.1,0,2.3,0.2,3.3,0.6c1.1,0.4,2.1,0.9,2.9,1.6l-1.9,2.8
				c-1.5-1.1-3-1.7-4.5-1.7C283.1,83.3,282.6,83.4,282.2,83.7z"/>
		</g>
		<g id="Layer_2-2">
			<path class="st11" d="M190.3,196.6c0-1,0.3-1.9,1-2.6c0.7-0.8,1.8-1.1,2.8-1.1c1-0.1,2,0.3,2.8,1.1c0.7,0.7,1,1.7,1,2.6
				c0,1-0.3,1.9-1,2.6c-0.8,0.7-1.8,1.1-2.8,1c-1.9,0.2-3.6-1.2-3.8-3C190.2,196.9,190.2,196.7,190.3,196.6L190.3,196.6z
				 M196.7,185.6H191l-0.5-36.1h6.7L196.7,185.6z"/>
			<path class="st11" d="M194.4,218.1c-23.5,0-42.5-19-42.5-42.5s19-42.5,42.5-42.5s42.5,19,42.5,42.5S217.9,218.1,194.4,218.1
				L194.4,218.1z M194.4,135.1c-22.4,0-40.5,18.1-40.5,40.5s18.1,40.5,40.5,40.5s40.5-18.1,40.5-40.5
				C234.9,153.3,216.7,135.1,194.4,135.1L194.4,135.1z"/>
		</g>
	</g>
</g>
<g>
	<g>
		<path class="st12" d="M104.8,261.3v3.3h-1.1v-8.5h3.1c0.9,0,1.7,0.2,2.2,0.7s0.8,1.1,0.8,1.9s-0.3,1.5-0.8,1.9s-1.3,0.7-2.2,0.7
			H104.8z M104.8,260.3h2c0.6,0,1.1-0.1,1.4-0.4c0.3-0.3,0.5-0.7,0.5-1.2s-0.2-0.9-0.5-1.2c-0.3-0.3-0.8-0.5-1.3-0.5h-2.1
			L104.8,260.3L104.8,260.3z"/>
		<path class="st12" d="M112.2,263.7h4v0.9H111v-8.5h1.1v7.6H112.2z"/>
		<path class="st12" d="M122.5,260.7h-3.7v3h4.3v0.9h-5.4v-8.5h5.4v0.9h-4.2v2.7h3.7L122.5,260.7L122.5,260.7z"/>
		<path class="st12" d="M129.2,262.4h-3.6l-0.8,2.2h-1.2l3.3-8.5h1l3.3,8.5H130L129.2,262.4z M126,261.4h2.9l-1.5-4L126,261.4z"/>
		<path class="st12" d="M134.8,260.8c-1-0.3-1.7-0.6-2.1-1s-0.7-0.9-0.7-1.5c0-0.7,0.3-1.2,0.8-1.7s1.2-0.7,2.1-0.7
			c0.6,0,1.1,0.1,1.6,0.3c0.5,0.2,0.8,0.5,1.1,0.9s0.4,0.8,0.4,1.3h-1.1c0-0.5-0.2-0.9-0.5-1.2s-0.8-0.4-1.4-0.4s-1,0.1-1.3,0.4
			c-0.3,0.2-0.5,0.6-0.5,1c0,0.3,0.1,0.6,0.4,0.9c0.3,0.2,0.8,0.5,1.5,0.7s1.3,0.4,1.7,0.7s0.7,0.5,0.9,0.8s0.3,0.7,0.3,1.1
			c0,0.7-0.3,1.2-0.8,1.7s-1.3,0.6-2.2,0.6c-0.6,0-1.1-0.1-1.6-0.3s-0.9-0.5-1.2-0.9s-0.4-0.8-0.4-1.3h1.1c0,0.5,0.2,0.9,0.6,1.2
			s0.9,0.4,1.5,0.4s1-0.1,1.4-0.4s0.5-0.6,0.5-1s-0.1-0.7-0.4-1S135.6,261,134.8,260.8z"/>
		<path class="st12" d="M144.2,260.7h-3.7v3h4.3v0.9h-5.4v-8.5h5.4v0.9h-4.2v2.7h3.7L144.2,260.7L144.2,260.7z"/>
		<path class="st12" d="M155.2,256.1v5.8c0,0.8-0.3,1.5-0.8,2s-1.2,0.8-2,0.9h-0.3c-0.9,0-1.7-0.3-2.2-0.8s-0.8-1.2-0.8-2.1v-5.8
			h1.1v5.8c0,0.6,0.2,1.1,0.5,1.4s0.8,0.5,1.5,0.5c0.6,0,1.1-0.2,1.5-0.5s0.5-0.8,0.5-1.4v-5.8H155.2z"/>
		<path class="st12" d="M159.5,260.8c-1-0.3-1.7-0.6-2.1-1s-0.7-0.9-0.7-1.5c0-0.7,0.3-1.2,0.8-1.7s1.2-0.7,2.1-0.7
			c0.6,0,1.1,0.1,1.6,0.3c0.5,0.2,0.8,0.5,1.1,0.9s0.4,0.8,0.4,1.3h-1.2c0-0.5-0.2-0.9-0.5-1.2s-0.8-0.4-1.4-0.4s-1,0.1-1.3,0.4
			c-0.3,0.2-0.5,0.6-0.5,1c0,0.3,0.1,0.6,0.4,0.9c0.3,0.2,0.8,0.5,1.5,0.7s1.3,0.4,1.7,0.7s0.7,0.5,0.9,0.8s0.3,0.7,0.3,1.1
			c0,0.7-0.3,1.2-0.8,1.7s-1.3,0.6-2.2,0.6c-0.6,0-1.1-0.1-1.6-0.3s-0.9-0.5-1.2-0.9s-0.4-0.8-0.4-1.3h1.1c0,0.5,0.2,0.9,0.6,1.2
			s0.9,0.4,1.5,0.4s1-0.1,1.4-0.4s0.5-0.6,0.5-1s-0.1-0.7-0.4-1S160.2,261,159.5,260.8z"/>
		<path class="st12" d="M168.9,260.7h-3.7v3h4.3v0.9H164v-8.5h5.4v0.9h-4.2v2.7h3.7V260.7L168.9,260.7z"/>
		<path class="st12" d="M178.6,262.4H175l-0.8,2.2H173l3.3-8.5h1l3.3,8.5h-1.2L178.6,262.4z M175.4,261.4h2.9l-1.5-4L175.4,261.4z"
			/>
		<path class="st12" d="M184.7,264.6v-8.5h2.8c0.9,0,1.6,0.2,2.1,0.6s0.7,0.9,0.7,1.7c0,0.4-0.1,0.8-0.3,1.1s-0.5,0.5-0.9,0.7
			c0.5,0.1,0.8,0.4,1.1,0.7s0.4,0.8,0.4,1.3c0,0.8-0.2,1.4-0.7,1.8s-1.2,0.7-2.1,0.7h-3.1V264.6z M185.8,259.7h1.7
			c0.5,0,0.9-0.1,1.2-0.4c0.3-0.2,0.4-0.6,0.4-1c0-0.5-0.1-0.8-0.4-1s-0.7-0.3-1.2-0.3h-1.7V259.7z M185.8,260.6v3.1h1.9
			c0.5,0,0.9-0.1,1.2-0.4s0.5-0.6,0.5-1.1c0-1-0.6-1.5-1.7-1.5h-1.9V260.6z"/>
		<path class="st12" d="M195.2,261.1h-2v3.5h-1.1v-8.5h2.8c1,0,1.7,0.2,2.2,0.7s0.8,1.1,0.8,1.9c0,0.5-0.1,1-0.4,1.4
			s-0.7,0.7-1.2,0.9l2,3.6v0.1h-1.2L195.2,261.1z M193.2,260.2h1.7c0.6,0,1-0.1,1.3-0.4s0.5-0.7,0.5-1.2s-0.2-0.9-0.5-1.2
			c-0.3-0.3-0.8-0.4-1.4-0.4h-1.7v3.2H193.2z"/>
		<path class="st12" d="M206.1,260.6c0,0.8-0.1,1.6-0.4,2.2s-0.7,1.1-1.2,1.4s-1.1,0.5-1.8,0.5c-0.7,0-1.3-0.2-1.8-0.5
			s-0.9-0.8-1.2-1.4s-0.4-1.3-0.4-2.1v-0.6c0-0.8,0.1-1.5,0.4-2.2s0.7-1.1,1.2-1.4s1.1-0.5,1.8-0.5c0.7,0,1.3,0.2,1.8,0.5
			s0.9,0.8,1.2,1.4s0.4,1.4,0.4,2.2V260.6z M205,260.1c0-1-0.2-1.8-0.6-2.3s-1-0.8-1.7-0.8s-1.3,0.3-1.7,0.8s-0.6,1.3-0.6,2.3v0.6
			c0,1,0.2,1.8,0.6,2.3s1,0.8,1.7,0.8s1.3-0.3,1.7-0.8s0.6-1.3,0.6-2.3V260.1z"/>
		<path class="st12" d="M209.7,261.9l0.2,1.1l0.2-1l1.7-6h0.9l1.6,6l0.2,1l0.2-1.1l1.3-5.8h1.1l-2.1,8.5h-1l-1.8-6.2l-0.1-0.7
			l-0.1,0.7l-1.8,6.2h-1l-2.1-8.5h1.1L209.7,261.9z"/>
		<path class="st12" d="M221,260.8c-1-0.3-1.7-0.6-2.1-1s-0.7-0.9-0.7-1.5c0-0.7,0.3-1.2,0.8-1.7s1.2-0.7,2.1-0.7
			c0.6,0,1.1,0.1,1.6,0.3c0.5,0.2,0.8,0.5,1.1,0.9s0.4,0.8,0.4,1.3H223c0-0.5-0.2-0.9-0.5-1.2s-0.8-0.4-1.4-0.4s-1,0.1-1.3,0.4
			c-0.3,0.2-0.5,0.6-0.5,1c0,0.3,0.1,0.6,0.4,0.9c0.3,0.2,0.8,0.5,1.5,0.7s1.3,0.4,1.7,0.7s0.7,0.5,0.9,0.8s0.3,0.7,0.3,1.1
			c0,0.7-0.3,1.2-0.8,1.7s-1.3,0.6-2.2,0.6c-0.6,0-1.1-0.1-1.6-0.3s-0.9-0.5-1.2-0.9s-0.4-0.8-0.4-1.3h1.1c0,0.5,0.2,0.9,0.6,1.2
			s0.9,0.4,1.5,0.4s1-0.1,1.4-0.4s0.5-0.6,0.5-1s-0.1-0.7-0.4-1S221.7,261,221,260.8z"/>
		<path class="st12" d="M230.4,260.7h-3.7v3h4.3v0.9h-5.4v-8.5h5.4v0.9h-4.2v2.7h3.7L230.4,260.7L230.4,260.7z"/>
		<path class="st12" d="M235.5,261.1h-2v3.5h-1.1v-8.5h2.8c1,0,1.7,0.2,2.2,0.7s0.8,1.1,0.8,1.9c0,0.5-0.1,1-0.4,1.4
			s-0.7,0.7-1.2,0.9l2,3.6v0.1h-1.2L235.5,261.1z M233.5,260.2h1.7c0.6,0,1-0.1,1.3-0.4s0.5-0.7,0.5-1.2s-0.2-0.9-0.5-1.2
			c-0.3-0.3-0.8-0.4-1.4-0.4h-1.6V260.2z"/>
		<path class="st12" d="M248.4,257h-2.7v7.6h-1.1V257h-2.7v-0.9h6.6L248.4,257L248.4,257z"/>
		<path class="st12" d="M256.2,264.6h-1.1v-3.9h-4.3v3.9h-1.1v-8.5h1.1v3.7h4.3v-3.7h1.1V264.6z"/>
		<path class="st12" d="M263.1,262.4h-3.6l-0.8,2.2h-1.2l3.3-8.5h1l3.3,8.5h-1.2L263.1,262.4z M259.8,261.4h2.9l-1.5-4L259.8,261.4z
			"/>
		<path class="st12" d="M271.2,257h-2.7v7.6h-1.1V257h-2.7v-0.9h6.6L271.2,257L271.2,257z"/>
	</g>
	<g>
		<path class="st12" d="M75.8,275.2c-1-0.3-1.7-0.6-2.1-1s-0.7-0.9-0.7-1.5c0-0.7,0.3-1.2,0.8-1.7s1.2-0.7,2.1-0.7
			c0.6,0,1.1,0.1,1.6,0.3s0.8,0.5,1.1,0.9s0.4,0.8,0.4,1.3h-1.1c0-0.5-0.2-0.9-0.5-1.2s-0.8-0.4-1.4-0.4c-0.6,0-1,0.1-1.3,0.4
			c-0.3,0.2-0.5,0.6-0.5,1c0,0.3,0.1,0.6,0.4,0.9s0.8,0.5,1.5,0.7s1.3,0.4,1.7,0.7s0.7,0.5,0.9,0.8s0.3,0.7,0.3,1.1
			c0,0.7-0.3,1.2-0.8,1.7s-1.3,0.6-2.2,0.6c-0.6,0-1.1-0.1-1.6-0.3s-0.9-0.5-1.2-0.9s-0.4-0.8-0.4-1.3h1.1c0,0.5,0.2,0.9,0.6,1.2
			s0.9,0.4,1.5,0.4s1-0.1,1.4-0.4s0.5-0.6,0.5-1s-0.1-0.7-0.4-1S76.5,275.4,75.8,275.2z"/>
		<path class="st12" d="M86.4,270.5v5.8c0,0.8-0.3,1.5-0.8,2s-1.2,0.8-2,0.9h-0.3c-0.9,0-1.7-0.3-2.2-0.8s-0.8-1.2-0.8-2.1v-5.8h1.1
			v5.8c0,0.6,0.2,1.1,0.5,1.4s0.8,0.5,1.5,0.5c0.6,0,1.1-0.2,1.5-0.5s0.5-0.8,0.5-1.4v-5.8H86.4z"/>
		<path class="st12" d="M89.3,275.7v3.3h-1.1v-8.5h3.1c0.9,0,1.7,0.2,2.2,0.7s0.8,1.1,0.8,1.9s-0.3,1.5-0.8,1.9s-1.3,0.7-2.2,0.7
			H89.3z M89.3,274.7h2c0.6,0,1.1-0.1,1.4-0.4c0.3-0.3,0.5-0.7,0.5-1.2s-0.2-0.9-0.5-1.2c-0.3-0.3-0.8-0.5-1.3-0.5h-2.1L89.3,274.7
			L89.3,274.7z"/>
		<path class="st12" d="M96.8,275.7v3.3h-1.1v-8.5h3.1c0.9,0,1.7,0.2,2.2,0.7s0.8,1.1,0.8,1.9s-0.3,1.5-0.8,1.9s-1.3,0.7-2.2,0.7
			H96.8z M96.8,274.7h2c0.6,0,1.1-0.1,1.4-0.4s0.5-0.7,0.5-1.2s-0.2-0.9-0.5-1.2c-0.3-0.3-0.8-0.5-1.3-0.5h-2.1L96.8,274.7
			L96.8,274.7z"/>
		<path class="st12" d="M109.8,275c0,0.8-0.1,1.6-0.4,2.2s-0.7,1.1-1.2,1.4s-1.1,0.5-1.8,0.5s-1.3-0.2-1.8-0.5s-0.9-0.8-1.2-1.4
			s-0.4-1.3-0.4-2.1v-0.6c0-0.8,0.1-1.5,0.4-2.2s0.7-1.1,1.2-1.4s1.1-0.5,1.8-0.5s1.3,0.2,1.8,0.5s0.9,0.8,1.2,1.4s0.4,1.4,0.4,2.2
			V275z M108.7,274.5c0-1-0.2-1.8-0.6-2.3s-1-0.8-1.7-0.8s-1.3,0.3-1.7,0.8s-0.6,1.3-0.6,2.3v0.6c0,1,0.2,1.8,0.6,2.3s1,0.8,1.7,0.8
			s1.3-0.3,1.7-0.8s0.6-1.3,0.6-2.3V274.5z"/>
		<path class="st12" d="M114.7,275.5h-2v3.5h-1.1v-8.5h2.8c1,0,1.7,0.2,2.2,0.7s0.8,1.1,0.8,1.9c0,0.5-0.1,1-0.4,1.4
			s-0.7,0.7-1.2,0.9l2,3.6v0.1h-1.2L114.7,275.5z M112.7,274.6h1.7c0.6,0,1-0.1,1.3-0.4s0.5-0.7,0.5-1.2s-0.2-0.9-0.5-1.2
			c-0.3-0.3-0.8-0.4-1.4-0.4h-1.7v3.2H112.7z"/>
		<path class="st12" d="M124.3,271.4h-2.7v7.6h-1.1v-7.6h-2.7v-0.9h6.6L124.3,271.4L124.3,271.4z"/>
		<path class="st12" d="M128,275.2c-1-0.3-1.7-0.6-2.1-1s-0.7-0.9-0.7-1.5c0-0.7,0.3-1.2,0.8-1.7s1.2-0.7,2.1-0.7
			c0.6,0,1.1,0.1,1.6,0.3s0.8,0.5,1.1,0.9s0.4,0.8,0.4,1.3h-1.1c0-0.5-0.2-0.9-0.5-1.2s-0.8-0.4-1.4-0.4s-1,0.1-1.3,0.4
			c-0.3,0.2-0.5,0.6-0.5,1c0,0.3,0.1,0.6,0.4,0.9s0.8,0.5,1.5,0.7s1.3,0.4,1.7,0.7s0.7,0.5,0.9,0.8s0.3,0.7,0.3,1.1
			c0,0.7-0.3,1.2-0.8,1.7s-1.3,0.6-2.2,0.6c-0.6,0-1.1-0.1-1.6-0.3s-0.9-0.5-1.2-0.9s-0.4-0.8-0.4-1.3h1.1c0,0.5,0.2,0.9,0.6,1.2
			s0.9,0.4,1.5,0.4s1-0.1,1.4-0.4s0.5-0.6,0.5-1s-0.1-0.7-0.4-1S128.8,275.4,128,275.2z"/>
		<path class="st12" d="M137.4,276.3l0.2,1.1l0.2-1l1.7-6h0.9l1.6,6l0.2,1l0.2-1.1l1.3-5.8h1.1l-2.1,8.5h-1l-1.8-6.2l-0.1-0.7
			l-0.1,0.7l-1.8,6.2h-1l-2.1-8.5h1.1L137.4,276.3z"/>
		<path class="st12" d="M151.1,275.1h-3.7v3h4.3v0.9h-5.4v-8.5h5.4v0.9h-4.3v2.7h3.7V275.1z"/>
		<path class="st12" d="M153.1,279v-8.5h2.8c0.9,0,1.6,0.2,2.1,0.6s0.7,0.9,0.7,1.7c0,0.4-0.1,0.8-0.3,1.1s-0.5,0.5-0.9,0.7
			c0.5,0.1,0.8,0.4,1.1,0.7s0.4,0.8,0.4,1.3c0,0.8-0.2,1.4-0.7,1.8s-1.2,0.7-2.1,0.7h-3.1V279z M154.2,274.1h1.7
			c0.5,0,0.9-0.1,1.2-0.4s0.4-0.6,0.4-1c0-0.5-0.1-0.8-0.4-1s-0.7-0.3-1.2-0.3h-1.7V274.1z M154.2,275v3.1h1.9
			c0.5,0,0.9-0.1,1.2-0.4s0.5-0.6,0.5-1.1c0-1-0.6-1.5-1.7-1.5h-1.9V275z"/>
		<path class="st12" d="M166.8,277.9c-0.3,0.4-0.7,0.7-1.2,0.9s-1.1,0.3-1.8,0.3c-0.7,0-1.3-0.2-1.9-0.5s-1-0.8-1.3-1.4
			s-0.4-1.3-0.5-2.1v-0.7c0-1.3,0.3-2.3,0.9-3s1.4-1.1,2.5-1.1c0.9,0,1.6,0.2,2.2,0.7s0.9,1.1,1,1.9h-1.1c-0.2-1.1-0.9-1.7-2-1.7
			c-0.8,0-1.3,0.3-1.7,0.8c-0.4,0.5-0.6,1.3-0.6,2.3v0.7c0,1,0.2,1.7,0.7,2.3c0.4,0.6,1,0.8,1.8,0.8c0.4,0,0.8,0,1.1-0.1
			s0.6-0.3,0.8-0.5v-1.9h-2v-0.9h3.1V277.9z"/>
		<path class="st12" d="M169.8,278.1h4v0.9h-5.2v-8.5h1.1v7.6H169.8z"/>
		<path class="st12" d="M179.3,278.1h4v0.9h-5.2v-8.5h1.1v7.6H179.3z"/>
		<path class="st12" d="M185.8,279h-1.1v-8.5h1.1V279z"/>
		<path class="st12" d="M190.1,275l-1,1.1v2.9H188v-8.5h1.1v4.2l3.8-4.2h1.4l-3.4,3.8l3.6,4.8h-1.3L190.1,275z"/>
		<path class="st12" d="M200.2,275.1h-3.7v3h4.3v0.9h-5.4v-8.5h5.4v0.9h-4.2v2.7h3.7L200.2,275.1L200.2,275.1z"/>
		<path class="st12" d="M211.5,277.9c-0.3,0.4-0.7,0.7-1.2,0.9s-1.1,0.3-1.8,0.3c-0.7,0-1.3-0.2-1.9-0.5s-1-0.8-1.3-1.4
			s-0.4-1.3-0.5-2.1v-0.7c0-1.3,0.3-2.3,0.9-3s1.4-1.1,2.5-1.1c0.9,0,1.6,0.2,2.2,0.7s0.9,1.1,1,1.9h-1c-0.2-1.1-0.9-1.7-2-1.7
			c-0.8,0-1.3,0.3-1.7,0.8c-0.4,0.5-0.6,1.3-0.6,2.3v0.7c0,1,0.2,1.7,0.7,2.3c0.4,0.6,1,0.8,1.8,0.8c0.4,0,0.8,0,1.1-0.1
			s0.6-0.3,0.8-0.5v-1.9h-2v-0.9h3.1L211.5,277.9L211.5,277.9z"/>
		<path class="st12" d="M219.9,275c0,0.8-0.1,1.6-0.4,2.2s-0.7,1.1-1.2,1.4s-1.1,0.5-1.8,0.5c-0.7,0-1.3-0.2-1.8-0.5
			s-0.9-0.8-1.2-1.4s-0.4-1.3-0.4-2.1v-0.6c0-0.8,0.1-1.5,0.4-2.2s0.7-1.1,1.2-1.4s1.1-0.5,1.8-0.5c0.7,0,1.3,0.2,1.8,0.5
			s0.9,0.8,1.2,1.4s0.4,1.4,0.4,2.2V275z M218.8,274.5c0-1-0.2-1.8-0.6-2.3s-1-0.8-1.7-0.8s-1.3,0.3-1.7,0.8s-0.6,1.3-0.6,2.3v0.6
			c0,1,0.2,1.8,0.6,2.3s1,0.8,1.7,0.8s1.3-0.3,1.7-0.8s0.6-1.3,0.6-2.3V274.5z"/>
		<path class="st12" d="M228.2,275c0,0.8-0.1,1.6-0.4,2.2s-0.7,1.1-1.2,1.4s-1.1,0.5-1.8,0.5c-0.7,0-1.3-0.2-1.8-0.5
			s-0.9-0.8-1.2-1.4s-0.4-1.3-0.4-2.1v-0.6c0-0.8,0.1-1.5,0.4-2.2s0.7-1.1,1.2-1.4s1.1-0.5,1.8-0.5c0.7,0,1.3,0.2,1.8,0.5
			s0.9,0.8,1.2,1.4s0.4,1.4,0.4,2.2V275z M227.1,274.5c0-1-0.2-1.8-0.6-2.3s-1-0.8-1.7-0.8s-1.3,0.3-1.7,0.8s-0.6,1.3-0.6,2.3v0.6
			c0,1,0.2,1.8,0.6,2.3s1,0.8,1.7,0.8s1.3-0.3,1.7-0.8s0.6-1.3,0.6-2.3V274.5z"/>
		<path class="st12" d="M236.2,277.9c-0.3,0.4-0.7,0.7-1.2,0.9s-1.1,0.3-1.8,0.3c-0.7,0-1.3-0.2-1.9-0.5s-1-0.8-1.3-1.4
			s-0.4-1.3-0.5-2.1v-0.7c0-1.3,0.3-2.3,0.9-3s1.4-1.1,2.5-1.1c0.9,0,1.6,0.2,2.2,0.7s0.9,1.1,1,1.9H235c-0.2-1.1-0.9-1.7-2-1.7
			c-0.8,0-1.3,0.3-1.7,0.8c-0.4,0.5-0.6,1.3-0.6,2.3v0.7c0,1,0.2,1.7,0.7,2.3c0.4,0.6,1,0.8,1.8,0.8c0.4,0,0.8,0,1.1-0.1
			s0.6-0.3,0.8-0.5v-1.9h-2v-0.9h3.1L236.2,277.9L236.2,277.9z"/>
		<path class="st12" d="M239.2,278.1h4v0.9H238v-8.5h1.1v7.6H239.2z"/>
		<path class="st12" d="M249.3,275.1h-3.7v3h4.3v0.9h-5.4v-8.5h5.4v0.9h-4.2v2.7h3.7L249.3,275.1L249.3,275.1z"/>
		<path class="st12" d="M260.6,276.3c-0.1,0.9-0.4,1.6-1,2.1s-1.3,0.7-2.2,0.7c-1,0-1.8-0.4-2.4-1.1s-0.9-1.7-0.9-2.9v-0.8
			c0-0.8,0.1-1.5,0.4-2.1s0.7-1.1,1.2-1.4s1.1-0.5,1.8-0.5c0.9,0,1.6,0.3,2.2,0.8s0.9,1.2,1,2.1h-1.3c-0.1-0.7-0.3-1.2-0.6-1.5
			s-0.8-0.5-1.4-0.5c-0.7,0-1.3,0.3-1.7,0.8c-0.4,0.5-0.6,1.3-0.6,2.3v0.8c0,0.9,0.2,1.7,0.6,2.2s0.9,0.8,1.6,0.8
			c0.6,0,1.1-0.1,1.4-0.4s0.6-0.8,0.7-1.5h1.2L260.6,276.3L260.6,276.3z"/>
		<path class="st12" d="M268.7,279h-1.1v-3.9h-4.3v3.9h-1.1v-8.5h1.1v3.7h4.3v-3.7h1.1V279z"/>
		<path class="st12" d="M273.8,275.5h-2v3.5h-1.1v-8.5h2.8c1,0,1.7,0.2,2.2,0.7s0.8,1.1,0.8,1.9c0,0.5-0.1,1-0.4,1.4
			s-0.7,0.7-1.2,0.9l2,3.6v0.1h-1.2L273.8,275.5z M271.8,274.6h1.7c0.6,0,1-0.1,1.3-0.4s0.5-0.7,0.5-1.2s-0.2-0.9-0.5-1.2
			c-0.3-0.3-0.8-0.4-1.4-0.4h-1.7v3.2H271.8z"/>
		<path class="st12" d="M284.6,275c0,0.8-0.1,1.6-0.4,2.2s-0.7,1.1-1.2,1.4s-1.1,0.5-1.8,0.5c-0.7,0-1.3-0.2-1.8-0.5
			s-0.9-0.8-1.2-1.4s-0.4-1.3-0.4-2.1v-0.6c0-0.8,0.1-1.5,0.4-2.2s0.7-1.1,1.2-1.4s1.1-0.5,1.8-0.5c0.7,0,1.3,0.2,1.8,0.5
			s0.9,0.8,1.2,1.4s0.4,1.4,0.4,2.2V275z M283.5,274.5c0-1-0.2-1.8-0.6-2.3s-1-0.8-1.7-0.8s-1.3,0.3-1.7,0.8s-0.6,1.3-0.6,2.3v0.6
			c0,1,0.2,1.8,0.6,2.3s1,0.8,1.7,0.8s1.3-0.3,1.7-0.8s0.6-1.3,0.6-2.3V274.5z"/>
		<path class="st12" d="M287.8,270.5l2.8,7l2.8-7h1.5v8.5h-1.1v-3.3l0.1-3.6l-2.8,6.9h-0.9l-2.8-6.9l0.1,3.6v3.3h-1.1v-8.5H287.8z"
			/>
		<path class="st12" d="M301.6,275.1h-3.7v3h4.3v0.9h-5.4v-8.5h5.4v0.9H298v2.7h3.7L301.6,275.1L301.6,275.1z"/>
	</g>
</g>
</svg>
